<?xml version="1.0" encoding="UTF-8" standalone="no"?>
<!-- Created with Inkscape (http://www.inkscape.org/) -->

<svg
   width="210mm"
   height="30mm"
   viewBox="0 0 210 30"
   version="1.1"
   id="svg5"
   xml:space="preserve"
   xmlns:xlink="http://www.w3.org/1999/xlink"
   xmlns="http://www.w3.org/2000/svg"
   xmlns:svg="http://www.w3.org/2000/svg"><defs
     id="defs2"><linearGradient
       id="linearGradient3954"><stop
         style="stop-color:#202634;stop-opacity:1;"
         offset="0"
         id="stop3950" /><stop
         style="stop-color:#19153f;stop-opacity:1;"
         offset="1"
         id="stop3952" /></linearGradient><linearGradient
       xlink:href="#linearGradient3954"
       id="linearGradient3956"
       x1="0.60354942"
       y1="50.000004"
       x2="209.39645"
       y2="50.000004"
       gradientUnits="userSpaceOnUse" /></defs><g
     id="layer1"
     transform="translate(0,-69.665998)"><rect
       style="fill:url(#linearGradient3956);fill-opacity:1;stroke:none;stroke-width:1.20709;stroke-linejoin:bevel;paint-order:stroke markers fill"
       id="rect525"
       width="208.79291"
       height="98.792908"
       x="0.60354942"
       y="0.60354942" /><rect
       style="fill:#0f1425;fill-opacity:1;stroke:none;stroke-width:1.22181;stroke-linejoin:bevel;stroke-opacity:1;paint-order:stroke markers fill"
       id="rect3897"
       width="210"
       height="30"
       x="0"
       y="69.666" /><g
       aria-label="Pocket Relay"
       id="text3584"
       style="font-size:8.46667px;font-family:Calibri;-inkscape-font-specification:Calibri;fill:#ffffff;stroke-width:1.224;stroke-linejoin:bevel;paint-order:stroke markers fill"><path
         d="m 13.662827,80.033988 q 0,0.450619 -0.14056,0.797885 -0.14056,0.347266 -0.409278,0.587044 -0.268717,0.235645 -0.661458,0.359669 -0.388607,0.124023 -0.917774,0.124023 h -0.446485 v 1.70739 q 0,0.04134 -0.02894,0.07441 -0.02481,0.03307 -0.08682,0.05374 -0.06201,0.02067 -0.165364,0.03307 -0.103353,0.0124 -0.264584,0.0124 -0.157096,0 -0.264583,-0.0124 -0.103353,-0.0124 -0.165365,-0.03307 -0.06201,-0.02067 -0.08682,-0.05374 -0.024805,-0.03307 -0.024805,-0.07441 v -4.812111 q 0,-0.194304 0.099219,-0.289388 0.103353,-0.09922 0.268717,-0.09922 h 1.260906 q 0.190169,0 0.359668,0.01654 0.173633,0.0124 0.413411,0.06201 0.239779,0.04547 0.483692,0.173633 0.248047,0.128158 0.42168,0.326595 0.173633,0.194304 0.264583,0.458887 0.09095,0.260449 0.09095,0.587044 z m -1.136882,0.07855 q 0,-0.28112 -0.09922,-0.463021 -0.09922,-0.181901 -0.243913,-0.268718 -0.144694,-0.08682 -0.305924,-0.107487 -0.157097,-0.02481 -0.326596,-0.02481 h -0.463021 v 1.814877 h 0.487826 q 0.260449,0 0.434082,-0.07028 0.177767,-0.07028 0.289388,-0.194303 0.111622,-0.128158 0.169499,-0.30179 0.05788,-0.177767 0.05788,-0.384473 z"
         style="-inkscape-font-specification:'Calibri Bold'"
         id="path8000" /><path
         d="m 18.036722,81.737244 q 0,0.47129 -0.124024,0.859897 -0.124023,0.388606 -0.376204,0.669726 -0.252181,0.28112 -0.63252,0.434083 -0.380339,0.152962 -0.888835,0.152962 -0.49196,0 -0.855762,-0.136426 -0.363802,-0.136426 -0.603581,-0.396875 -0.239779,-0.260449 -0.355534,-0.640788 -0.115755,-0.380339 -0.115755,-0.868165 0,-0.471289 0.124023,-0.859896 0.128158,-0.392741 0.380339,-0.669727 0.252181,-0.281119 0.628386,-0.434082 0.380338,-0.152962 0.888835,-0.152962 0.496094,0 0.859896,0.136426 0.363802,0.132292 0.599447,0.392741 0.239778,0.260449 0.355534,0.640788 0.115755,0.380339 0.115755,0.872298 z m -1.070736,0.04134 q 0,-0.272852 -0.04547,-0.500229 -0.04134,-0.23151 -0.144695,-0.401009 -0.103352,-0.169499 -0.276985,-0.264583 -0.169499,-0.09508 -0.429948,-0.09508 -0.231511,0 -0.405144,0.08682 -0.173633,0.08268 -0.285254,0.248047 -0.111621,0.16123 -0.169499,0.392741 -0.05374,0.227376 -0.05374,0.520898 0,0.272852 0.04547,0.504362 0.04547,0.227377 0.144694,0.396876 0.103353,0.169498 0.276986,0.264583 0.173633,0.09095 0.429948,0.09095 0.235645,0 0.409278,-0.08268 0.173633,-0.08682 0.285254,-0.248047 0.111621,-0.16123 0.165364,-0.388607 0.05374,-0.23151 0.05374,-0.525032 z"
         style="-inkscape-font-specification:'Calibri Bold'"
         id="path8002" /><path
         d="m 21.64994,83.031223 q 0,0.107487 -0.0083,0.181901 -0.0041,0.07028 -0.01654,0.119889 -0.0083,0.04961 -0.02481,0.08268 -0.0124,0.02894 -0.06201,0.07855 -0.04961,0.04548 -0.169498,0.115755 -0.11989,0.06615 -0.272852,0.119889 -0.152962,0.05374 -0.334863,0.08682 -0.177767,0.03307 -0.367937,0.03307 -0.425814,0 -0.756543,-0.132292 -0.326595,-0.132292 -0.549838,-0.388607 -0.223242,-0.260449 -0.338997,-0.63252 -0.111621,-0.37207 -0.111621,-0.851628 0,-0.553971 0.136426,-0.95498 0.14056,-0.405144 0.388607,-0.669727 0.248047,-0.264584 0.587044,-0.392741 0.338998,-0.128158 0.744141,-0.128158 0.165365,0 0.322461,0.02894 0.161231,0.02894 0.297656,0.07855 0.14056,0.04961 0.248047,0.111621 0.111622,0.06201 0.157097,0.107487 0.04547,0.04548 0.06201,0.07855 0.02067,0.02894 0.02894,0.07855 0.0124,0.04961 0.01654,0.124023 0.0083,0.07028 0.0083,0.173633 0,0.239779 -0.04134,0.338998 -0.04134,0.09508 -0.107487,0.09508 -0.07028,0 -0.148828,-0.05788 -0.07855,-0.05788 -0.186036,-0.128158 -0.107487,-0.07028 -0.256315,-0.128158 -0.148828,-0.05788 -0.355534,-0.05788 -0.405143,0 -0.620117,0.314193 -0.214974,0.310058 -0.214974,0.913639 0,0.297657 0.05374,0.525033 0.05374,0.227376 0.157097,0.380339 0.107487,0.152962 0.264583,0.23151 0.161231,0.07441 0.372071,0.07441 0.214974,0 0.367936,-0.06201 0.157096,-0.06615 0.272852,-0.144694 0.115755,-0.07855 0.194303,-0.14056 0.07855,-0.06615 0.132292,-0.06615 0.03721,0 0.06201,0.02067 0.0248,0.02067 0.03721,0.07855 0.01654,0.05374 0.0248,0.140559 0.0083,0.08682 0.0083,0.223243 z"
         style="-inkscape-font-specification:'Calibri Bold'"
         id="path8004" /><path
         d="m 25.829531,83.622401 q 0,0.04134 -0.02481,0.07441 -0.02067,0.02894 -0.08268,0.04961 -0.05788,0.01654 -0.161231,0.02481 -0.103353,0.0124 -0.268717,0.0124 -0.169499,0 -0.276986,-0.0083 -0.103353,-0.0083 -0.173633,-0.02481 -0.06615,-0.02067 -0.103353,-0.05374 -0.03721,-0.03307 -0.06615,-0.08682 l -1.227832,-1.943035 v 1.951303 q 0,0.04134 -0.02481,0.07441 -0.02481,0.02894 -0.08682,0.04961 -0.05788,0.02067 -0.157096,0.02894 -0.09922,0.0124 -0.252181,0.0124 -0.152962,0 -0.252181,-0.0124 -0.09922,-0.0083 -0.161231,-0.02894 -0.05788,-0.02067 -0.08268,-0.04961 -0.02481,-0.03307 -0.02481,-0.07441 v -5.436363 q 0,-0.04134 0.02481,-0.07441 0.02481,-0.03307 0.08268,-0.05374 0.06201,-0.02481 0.161231,-0.03721 0.09922,-0.0124 0.252181,-0.0124 0.152962,0 0.252181,0.0124 0.09922,0.0124 0.157096,0.03721 0.06201,0.02067 0.08682,0.05374 0.02481,0.03307 0.02481,0.07441 v 3.237013 l 1.091406,-1.467611 q 0.03307,-0.04961 0.07441,-0.08682 0.04134,-0.03721 0.107487,-0.05788 0.07028,-0.02067 0.169499,-0.02894 0.103353,-0.0124 0.26045,-0.0124 0.152962,0 0.256315,0.0124 0.107487,0.0083 0.169498,0.02894 0.06615,0.02067 0.09095,0.05374 0.0248,0.02894 0.0248,0.07441 0,0.06201 -0.03307,0.132291 -0.02894,0.07028 -0.09095,0.148829 l -1.079004,1.223698 1.248503,1.930632 q 0.04961,0.08268 0.07028,0.144694 0.02481,0.05788 0.02481,0.107487 z"
         style="-inkscape-font-specification:'Calibri Bold'"
         id="path8006" /><path
         d="m 29.641186,81.666964 q 0,0.19017 -0.08682,0.28112 -0.08268,0.09095 -0.231511,0.09095 H 27.07803 q 0,0.235644 0.05374,0.429948 0.05788,0.190169 0.177766,0.326595 0.124024,0.132292 0.314193,0.202572 0.194304,0.07028 0.463021,0.07028 0.272852,0 0.479558,-0.03721 0.206706,-0.04134 0.355534,-0.08682 0.152962,-0.04961 0.252181,-0.08682 0.09922,-0.04134 0.16123,-0.04134 0.03721,0 0.06201,0.01654 0.02481,0.0124 0.04134,0.04961 0.01654,0.03721 0.02067,0.107487 0.0083,0.06615 0.0083,0.169498 0,0.09095 -0.0041,0.157097 -0.0041,0.06201 -0.0124,0.107487 -0.0083,0.04547 -0.02481,0.07855 -0.01654,0.02894 -0.04547,0.05788 -0.02481,0.02894 -0.144694,0.07855 -0.11989,0.04961 -0.305925,0.09922 -0.186035,0.04547 -0.425814,0.07855 -0.239779,0.03721 -0.51263,0.03721 -0.49196,0 -0.864031,-0.124024 -0.367936,-0.124023 -0.615983,-0.376204 -0.248047,-0.252181 -0.37207,-0.636654 -0.11989,-0.384473 -0.11989,-0.901237 0,-0.49196 0.128158,-0.884701 0.128157,-0.396875 0.37207,-0.669727 0.243913,-0.276986 0.591179,-0.42168 0.3514,-0.144694 0.789616,-0.144694 0.463021,0 0.789616,0.136426 0.33073,0.136426 0.54157,0.380338 0.210839,0.239779 0.310058,0.570509 0.09922,0.330729 0.09922,0.719336 z m -1.008724,-0.297656 q 0.0124,-0.438216 -0.177767,-0.686263 -0.186036,-0.252181 -0.578777,-0.252181 -0.198437,0 -0.347265,0.07441 -0.144694,0.07441 -0.243913,0.202571 -0.09509,0.124024 -0.148828,0.297657 -0.04961,0.169499 -0.05788,0.363802 z"
         style="-inkscape-font-specification:'Calibri Bold'"
         id="path8008" /><path
         d="m 32.621885,83.254465 q 0,0.181901 -0.02481,0.28112 -0.02067,0.09508 -0.05788,0.136426 -0.03721,0.03721 -0.111622,0.07028 -0.07028,0.02894 -0.169498,0.04961 -0.09508,0.02481 -0.21084,0.03721 -0.111621,0.0124 -0.227377,0.0124 -0.310058,0 -0.537435,-0.07855 -0.227376,-0.07855 -0.376204,-0.239778 -0.148829,-0.165365 -0.219109,-0.413412 -0.07028,-0.248047 -0.07028,-0.587045 v -1.889291 h -0.44235 q -0.07855,0 -0.119889,-0.09508 -0.04134,-0.09922 -0.04134,-0.326596 0,-0.119889 0.0083,-0.202571 0.0124,-0.08268 0.03307,-0.128158 0.02067,-0.04961 0.04961,-0.07028 0.03307,-0.02067 0.07441,-0.02067 h 0.438216 v -0.822689 q 0,-0.04134 0.02067,-0.07442 0.0248,-0.03307 0.08268,-0.05374 0.06201,-0.02481 0.161231,-0.03307 0.103353,-0.0124 0.252181,-0.0124 0.152962,0 0.252181,0.0124 0.103353,0.0083 0.161231,0.03307 0.05788,0.02067 0.08268,0.05374 0.02481,0.03307 0.02481,0.07442 v 0.822689 h 0.802018 q 0.04134,0 0.07028,0.02067 0.03307,0.02067 0.05374,0.07028 0.02067,0.04547 0.02894,0.128158 0.0124,0.08268 0.0124,0.202571 0,0.227377 -0.04134,0.326596 -0.04134,0.09508 -0.11989,0.09508 h -0.806152 v 1.732195 q 0,0.301791 0.09508,0.454753 0.09509,0.148828 0.338998,0.148828 0.08268,0 0.148828,-0.0124 0.06615,-0.01654 0.115755,-0.03307 0.05374,-0.02067 0.08682,-0.03307 0.03721,-0.01654 0.06615,-0.01654 0.0248,0 0.04548,0.01654 0.02481,0.0124 0.03721,0.05788 0.0124,0.04134 0.02067,0.115756 0.0124,0.07441 0.0124,0.190169 z"
         style="-inkscape-font-specification:'Calibri Bold'"
         id="path8010" /><path
         d="m 39.319152,83.618267 q 0,0.04548 -0.01654,0.07855 -0.01654,0.02894 -0.07855,0.04961 -0.06201,0.02067 -0.181901,0.02894 -0.11989,0.0083 -0.326596,0.0083 -0.173632,0 -0.276985,-0.0083 -0.103353,-0.0083 -0.165365,-0.02894 -0.05788,-0.02481 -0.08268,-0.05788 -0.02481,-0.03721 -0.04134,-0.08682 l -0.479557,-1.19476 q -0.08682,-0.202571 -0.169499,-0.359668 -0.08268,-0.157096 -0.186035,-0.260449 -0.09922,-0.107487 -0.231511,-0.161231 -0.132291,-0.05374 -0.305924,-0.05374 h -0.338998 v 2.038119 q 0,0.04134 -0.02894,0.07441 -0.02481,0.03307 -0.08682,0.05374 -0.06201,0.02067 -0.165365,0.03307 -0.103352,0.0124 -0.264583,0.0124 -0.157096,0 -0.264583,-0.0124 -0.103353,-0.0124 -0.165365,-0.03307 -0.06201,-0.02067 -0.08682,-0.05374 -0.0248,-0.03307 -0.0248,-0.07441 v -4.857587 q 0,-0.181901 0.09095,-0.260449 0.09509,-0.08268 0.231511,-0.08268 h 1.384929 q 0.21084,0 0.347266,0.0083 0.136425,0.0083 0.248047,0.02067 0.322461,0.04547 0.578776,0.157096 0.260449,0.111621 0.438216,0.293522 0.181901,0.177767 0.276986,0.425814 0.09508,0.243913 0.09508,0.56224 0,0.268718 -0.07028,0.49196 -0.06615,0.219108 -0.198438,0.392741 -0.132292,0.173633 -0.326595,0.30179 -0.194304,0.128158 -0.442351,0.206706 0.11989,0.05788 0.223243,0.14056 0.107487,0.08268 0.198437,0.202572 0.09508,0.115755 0.177767,0.268717 0.08268,0.148829 0.161231,0.338998 l 0.450618,1.0542 q 0.06201,0.157096 0.08268,0.23151 0.02067,0.07028 0.02067,0.111621 z m -1.401465,-3.629754 q 0,-0.264583 -0.119889,-0.446484 -0.11989,-0.181901 -0.392741,-0.256316 -0.08268,-0.02067 -0.19017,-0.03307 -0.103353,-0.0124 -0.289388,-0.0124 h -0.487826 v 1.517221 h 0.553972 q 0.23151,0 0.405143,-0.05374 0.173633,-0.05788 0.289388,-0.157096 0.115756,-0.103353 0.173633,-0.243913 0.05788,-0.14056 0.05788,-0.314193 z"
         style="-inkscape-font-specification:'Calibri Bold'"
         id="path8012" /><path
         d="m 43.337513,81.666964 q 0,0.19017 -0.08682,0.28112 -0.08268,0.09095 -0.231511,0.09095 h -2.244825 q 0,0.235644 0.05374,0.429948 0.05788,0.190169 0.177767,0.326595 0.124023,0.132292 0.314193,0.202572 0.194303,0.07028 0.463021,0.07028 0.272851,0 0.479557,-0.03721 0.206706,-0.04134 0.355534,-0.08682 0.152962,-0.04961 0.252181,-0.08682 0.09922,-0.04134 0.161231,-0.04134 0.03721,0 0.06201,0.01654 0.02481,0.0124 0.04134,0.04961 0.01654,0.03721 0.02067,0.107487 0.0083,0.06615 0.0083,0.169498 0,0.09095 -0.0041,0.157097 -0.0041,0.06201 -0.0124,0.107487 -0.0083,0.04547 -0.0248,0.07855 -0.01654,0.02894 -0.04548,0.05788 -0.02481,0.02894 -0.144694,0.07855 -0.119889,0.04961 -0.305925,0.09922 -0.186035,0.04547 -0.425814,0.07855 -0.239778,0.03721 -0.51263,0.03721 -0.49196,0 -0.86403,-0.124024 -0.367937,-0.124023 -0.615984,-0.376204 -0.248047,-0.252181 -0.37207,-0.636654 -0.11989,-0.384473 -0.11989,-0.901237 0,-0.49196 0.128158,-0.884701 0.128158,-0.396875 0.372071,-0.669727 0.243912,-0.276986 0.591178,-0.42168 0.3514,-0.144694 0.789616,-0.144694 0.463021,0 0.789617,0.136426 0.330729,0.136426 0.541569,0.380338 0.21084,0.239779 0.310058,0.570509 0.09922,0.330729 0.09922,0.719336 z m -1.008724,-0.297656 q 0.0124,-0.438216 -0.177767,-0.686263 -0.186035,-0.252181 -0.578776,-0.252181 -0.198438,0 -0.347266,0.07441 -0.144694,0.07441 -0.243913,0.202571 -0.09509,0.124024 -0.148828,0.297657 -0.04961,0.169499 -0.05788,0.363802 z"
         style="-inkscape-font-specification:'Calibri Bold'"
         id="path8014" /><path
         d="m 45.235073,83.618267 q 0,0.04134 -0.02481,0.07441 -0.02481,0.02894 -0.08682,0.04961 -0.05788,0.02067 -0.157096,0.02894 -0.09922,0.0124 -0.252181,0.0124 -0.152962,0 -0.252181,-0.0124 -0.09922,-0.0083 -0.161231,-0.02894 -0.05788,-0.02067 -0.08268,-0.04961 -0.02481,-0.03307 -0.02481,-0.07441 v -5.436363 q 0,-0.04134 0.02481,-0.07441 0.02481,-0.03307 0.08268,-0.05374 0.06201,-0.02481 0.161231,-0.03721 0.09922,-0.0124 0.252181,-0.0124 0.152962,0 0.252181,0.0124 0.09922,0.0124 0.157096,0.03721 0.06201,0.02067 0.08682,0.05374 0.02481,0.03307 0.02481,0.07441 z"
         style="-inkscape-font-specification:'Calibri Bold'"
         id="path8016" /><path
         d="m 49.414664,83.63067 q 0,0.05788 -0.04134,0.09095 -0.04134,0.03307 -0.132292,0.04547 -0.08682,0.01654 -0.260449,0.01654 -0.186036,0 -0.272852,-0.01654 -0.08268,-0.0124 -0.119889,-0.04547 -0.03307,-0.03307 -0.03307,-0.09095 v -0.293523 q -0.227377,0.243913 -0.520899,0.380339 -0.289388,0.136426 -0.644922,0.136426 -0.293522,0 -0.541569,-0.07855 -0.243913,-0.07441 -0.425814,-0.223243 -0.177767,-0.152962 -0.276986,-0.376204 -0.09922,-0.223242 -0.09922,-0.520899 0,-0.322461 0.124024,-0.558106 0.128157,-0.239778 0.376204,-0.392741 0.252181,-0.157096 0.624252,-0.23151 0.37207,-0.07441 0.86403,-0.07441 h 0.359668 v -0.223242 q 0,-0.173633 -0.03721,-0.301791 -0.03307,-0.132292 -0.115755,-0.219108 -0.07855,-0.08682 -0.214974,-0.128158 -0.132292,-0.04134 -0.33073,-0.04134 -0.260449,0 -0.467155,0.05788 -0.202571,0.05788 -0.359668,0.128157 -0.157096,0.07028 -0.264583,0.128158 -0.103353,0.05788 -0.169499,0.05788 -0.04547,0 -0.08268,-0.02894 -0.03307,-0.02894 -0.05788,-0.08268 -0.02067,-0.05374 -0.03307,-0.132291 -0.0124,-0.07855 -0.0124,-0.173633 0,-0.128158 0.02067,-0.202572 0.02067,-0.07441 0.07855,-0.132292 0.05788,-0.06201 0.202571,-0.132291 0.144694,-0.07441 0.338998,-0.136426 0.194303,-0.06201 0.42168,-0.09922 0.23151,-0.04134 0.475423,-0.04134 0.434082,0 0.740007,0.08682 0.310058,0.08268 0.508496,0.26045 0.198438,0.173633 0.289388,0.450618 0.09095,0.276986 0.09095,0.657325 z m -1.021127,-1.579233 h -0.396875 q -0.252181,0 -0.429948,0.03721 -0.177767,0.03721 -0.289388,0.111621 -0.111621,0.07441 -0.165365,0.181902 -0.04961,0.103352 -0.04961,0.239778 0,0.231511 0.144694,0.363802 0.148828,0.132292 0.409277,0.132292 0.219108,0 0.401009,-0.111621 0.186036,-0.111621 0.376205,-0.326595 z"
         style="-inkscape-font-specification:'Calibri Bold'"
         id="path8018" /><path
         d="m 52.436704,83.758827 -0.446485,1.306381 q -0.03721,0.103353 -0.202571,0.148828 -0.165365,0.04548 -0.483692,0.04548 -0.165365,0 -0.264583,-0.01654 -0.09922,-0.0124 -0.148829,-0.04547 -0.04961,-0.03307 -0.05374,-0.08268 -0.0041,-0.04961 0.02481,-0.119889 l 0.491959,-1.236101 q -0.05374,-0.0248 -0.09922,-0.07441 -0.04134,-0.05374 -0.06201,-0.111621 L 49.923169,80.18283 q -0.05374,-0.144694 -0.05374,-0.219108 0,-0.07855 0.04961,-0.11989 0.04961,-0.04547 0.165365,-0.06201 0.119889,-0.01654 0.314193,-0.01654 0.177767,0 0.28112,0.0083 0.103352,0.0041 0.16123,0.02894 0.05788,0.02481 0.08682,0.07855 0.02894,0.04961 0.05788,0.144694 l 0.868165,2.468068 h 0.0124 l 0.79375,-2.517677 q 0.02481,-0.107487 0.06201,-0.14056 0.04134,-0.03721 0.132292,-0.05374 0.09095,-0.01654 0.318327,-0.01654 0.177767,0 0.293522,0.01654 0.119889,0.01654 0.173633,0.06201 0.05788,0.04548 0.05788,0.124024 0,0.07441 -0.03307,0.177767 z"
         style="-inkscape-font-specification:'Calibri Bold'"
         id="path8020" /></g><g
       aria-label="Mass Effect 3 Server Emulator"
       transform="scale(0.9999522,1.0000478)"
       id="text3789"
       style="font-size:5.64471px;font-family:Calibri;-inkscape-font-specification:Calibri;fill:#b3b3b3;stroke-width:1.22406;stroke-linejoin:bevel;paint-order:stroke markers fill"><path
         d="m 13.87846,91.424631 q 0,0.02205 -0.01102,0.03859 -0.01103,0.01654 -0.03859,0.02756 -0.02756,0.0083 -0.07166,0.01378 -0.04134,0.0083 -0.110248,0.0083 -0.06339,0 -0.110248,-0.0083 -0.0441,-0.0055 -0.07166,-0.01378 -0.02481,-0.01103 -0.03583,-0.02756 -0.01103,-0.01654 -0.01103,-0.03859 v -3.106245 h -0.0055 l -1.270611,3.120026 q -0.0083,0.01929 -0.02481,0.03307 -0.01378,0.01378 -0.0441,0.02481 -0.02756,0.0083 -0.06891,0.01103 -0.03859,0.0055 -0.09371,0.0055 -0.05788,0 -0.09922,-0.0055 -0.04134,-0.0055 -0.06891,-0.01378 -0.02756,-0.01103 -0.0441,-0.02481 -0.01378,-0.01378 -0.01929,-0.03032 l -1.215487,-3.120026 h -0.0028 v 3.106245 q 0,0.02205 -0.01103,0.03859 -0.01103,0.01654 -0.03859,0.02756 -0.02756,0.0083 -0.07166,0.01378 -0.0441,0.0083 -0.113005,0.0083 -0.06615,0 -0.110248,-0.0083 -0.0441,-0.0055 -0.07166,-0.01378 -0.02481,-0.01103 -0.03583,-0.02756 -0.0083,-0.01654 -0.0083,-0.03859 v -3.279885 q 0,-0.115761 0.06064,-0.165373 0.06064,-0.04961 0.135054,-0.04961 h 0.286646 q 0.0882,0 0.154347,0.01654 0.06615,0.01654 0.115761,0.05237 0.04961,0.03583 0.08269,0.09095 0.03307,0.05513 0.05788,0.129542 l 1.033578,2.582565 h 0.01378 l 1.07492,-2.574296 q 0.03032,-0.08269 0.06615,-0.140567 0.03583,-0.05788 0.07717,-0.09096 0.0441,-0.03583 0.09647,-0.04961 0.05237,-0.01654 0.121273,-0.01654 h 0.300426 q 0.04134,0 0.07717,0.01378 0.03859,0.01103 0.06339,0.03859 0.02756,0.02481 0.0441,0.06615 0.01654,0.03859 0.01654,0.09647 z"
         id="path8045" /><path
         d="m 16.642935,91.430143 q 0,0.03307 -0.02205,0.04961 -0.02205,0.01654 -0.06064,0.02481 -0.03859,0.0083 -0.113004,0.0083 -0.07166,0 -0.115761,-0.0083 -0.04134,-0.0083 -0.06064,-0.02481 -0.01929,-0.01654 -0.01929,-0.04961 v -0.248058 q -0.162616,0.173641 -0.363819,0.270108 -0.198447,0.09647 -0.4217,0.09647 -0.19569,0 -0.35555,-0.05237 -0.157104,-0.04961 -0.270108,-0.146079 -0.110249,-0.09647 -0.173641,-0.237034 -0.06064,-0.140566 -0.06064,-0.319719 0,-0.209472 0.08544,-0.36382 0.08544,-0.154347 0.245303,-0.256327 0.15986,-0.101979 0.391381,-0.151591 0.231521,-0.05237 0.520923,-0.05237 h 0.34177 V 89.77642 q 0,-0.143323 -0.03032,-0.253571 -0.03032,-0.110249 -0.09922,-0.18191 -0.06615,-0.07442 -0.173641,-0.110248 -0.107492,-0.03859 -0.264596,-0.03859 -0.168128,0 -0.303183,0.04134 -0.132297,0.03859 -0.234277,0.0882 -0.09922,0.04685 -0.168129,0.0882 -0.06615,0.03859 -0.09922,0.03859 -0.02205,0 -0.03859,-0.01103 -0.01654,-0.01102 -0.03032,-0.03307 -0.01102,-0.02205 -0.01654,-0.05512 -0.0055,-0.03583 -0.0055,-0.07717 0,-0.06891 0.0083,-0.107492 0.01103,-0.04134 0.04686,-0.07717 0.03859,-0.03583 0.129542,-0.08269 0.09095,-0.04961 0.209472,-0.0882 0.118516,-0.04134 0.259083,-0.06615 0.140566,-0.02756 0.283889,-0.02756 0.267352,0 0.454774,0.06064 0.187422,0.06064 0.303183,0.179153 0.115761,0.115761 0.168128,0.289402 0.05237,0.173641 0.05237,0.405162 z m -0.452017,-1.132801 h -0.388626 q -0.187422,0 -0.325232,0.03307 -0.13781,0.03032 -0.228765,0.09371 -0.09096,0.06064 -0.135054,0.148835 -0.04134,0.08544 -0.04134,0.198447 0,0.192934 0.121273,0.308695 0.124029,0.113004 0.344526,0.113004 0.179153,0 0.330744,-0.09095 0.154348,-0.09095 0.322477,-0.278377 z"
         id="path8047" /><path
         d="m 19.035322,90.752116 q 0,0.190179 -0.07166,0.339014 -0.06891,0.148835 -0.198447,0.250815 -0.129542,0.101979 -0.308695,0.154347 -0.179154,0.05237 -0.394138,0.05237 -0.132298,0 -0.253571,-0.02205 -0.118517,-0.01929 -0.214984,-0.04961 -0.09371,-0.03308 -0.15986,-0.06615 -0.06615,-0.03583 -0.09647,-0.06339 -0.03032,-0.02756 -0.0441,-0.07717 -0.01378,-0.04961 -0.01378,-0.135054 0,-0.05237 0.0055,-0.0882 0.0055,-0.03583 0.01378,-0.05788 0.0083,-0.02205 0.02205,-0.03032 0.01654,-0.01103 0.03583,-0.01103 0.03032,0 0.0882,0.03859 0.06064,0.03583 0.146079,0.07993 0.0882,0.0441 0.206715,0.08269 0.118517,0.03583 0.272865,0.03583 0.11576,0 0.209471,-0.02481 0.09371,-0.02481 0.162617,-0.07166 0.06891,-0.04961 0.104735,-0.12403 0.03859,-0.07442 0.03859,-0.176397 0,-0.104736 -0.05512,-0.176397 -0.05237,-0.07166 -0.140566,-0.126786 -0.0882,-0.05512 -0.198447,-0.09647 -0.110248,-0.0441 -0.228765,-0.09095 -0.115761,-0.04685 -0.228765,-0.104735 -0.110249,-0.06064 -0.198447,-0.146079 -0.0882,-0.08544 -0.143323,-0.20396 -0.05237,-0.118516 -0.05237,-0.283889 0,-0.146079 0.05512,-0.278377 0.05788,-0.135054 0.170885,-0.234277 0.113005,-0.10198 0.281133,-0.162616 0.170885,-0.06064 0.396894,-0.06064 0.09922,0 0.198447,0.01654 0.09922,0.01654 0.179153,0.04134 0.07993,0.02481 0.135054,0.05512 0.05788,0.02756 0.08544,0.04961 0.03032,0.02205 0.03859,0.03859 0.01103,0.01654 0.01378,0.03859 0.0055,0.01929 0.0083,0.04961 0.0055,0.03032 0.0055,0.07442 0,0.04686 -0.0055,0.08269 -0.0028,0.03307 -0.01378,0.05512 -0.0083,0.02205 -0.02205,0.03307 -0.01378,0.0083 -0.03032,0.0083 -0.02481,0 -0.07166,-0.03032 -0.04686,-0.03032 -0.121273,-0.06339 -0.07442,-0.03583 -0.176398,-0.06615 -0.09922,-0.03032 -0.228765,-0.03032 -0.11576,0 -0.203959,0.02756 -0.0882,0.02481 -0.146079,0.07442 -0.05512,0.04686 -0.08544,0.113005 -0.02756,0.06615 -0.02756,0.143322 0,0.107492 0.05512,0.18191 0.05512,0.07166 0.143323,0.126785 0.0882,0.05513 0.201203,0.09922 0.113004,0.0441 0.228765,0.09095 0.118517,0.04685 0.231521,0.104736 0.115761,0.05788 0.203959,0.140566 0.0882,0.08269 0.140567,0.198447 0.05512,0.115761 0.05512,0.27562 z"
         id="path8049" /><path
         d="m 21.243044,90.752116 q 0,0.190179 -0.07166,0.339014 -0.06891,0.148835 -0.198447,0.250815 -0.129541,0.101979 -0.308695,0.154347 -0.179153,0.05237 -0.394137,0.05237 -0.132298,0 -0.253571,-0.02205 -0.118517,-0.01929 -0.214984,-0.04961 -0.09371,-0.03308 -0.15986,-0.06615 -0.06615,-0.03583 -0.09647,-0.06339 -0.03032,-0.02756 -0.0441,-0.07717 -0.01378,-0.04961 -0.01378,-0.135054 0,-0.05237 0.0055,-0.0882 0.0055,-0.03583 0.01378,-0.05788 0.0083,-0.02205 0.02205,-0.03032 0.01654,-0.01103 0.03583,-0.01103 0.03032,0 0.0882,0.03859 0.06064,0.03583 0.146079,0.07993 0.0882,0.0441 0.206715,0.08269 0.118517,0.03583 0.272865,0.03583 0.11576,0 0.209471,-0.02481 0.09371,-0.02481 0.162616,-0.07166 0.0689,-0.04961 0.104736,-0.12403 0.03859,-0.07442 0.03859,-0.176397 0,-0.104736 -0.05512,-0.176397 -0.05237,-0.07166 -0.140567,-0.126786 -0.0882,-0.05512 -0.198446,-0.09647 -0.110249,-0.0441 -0.228766,-0.09095 -0.11576,-0.04685 -0.228765,-0.104735 -0.110248,-0.06064 -0.198446,-0.146079 -0.0882,-0.08544 -0.143323,-0.20396 -0.05237,-0.118516 -0.05237,-0.283889 0,-0.146079 0.05512,-0.278377 0.05788,-0.135054 0.170885,-0.234277 0.113004,-0.10198 0.281133,-0.162616 0.170885,-0.06064 0.396894,-0.06064 0.09922,0 0.198446,0.01654 0.09922,0.01654 0.179154,0.04134 0.07993,0.02481 0.135054,0.05512 0.05788,0.02756 0.08544,0.04961 0.03032,0.02205 0.03859,0.03859 0.01103,0.01654 0.01378,0.03859 0.0055,0.01929 0.0083,0.04961 0.0055,0.03032 0.0055,0.07442 0,0.04686 -0.0055,0.08269 -0.0028,0.03307 -0.01378,0.05512 -0.0083,0.02205 -0.02205,0.03307 -0.01378,0.0083 -0.03032,0.0083 -0.02481,0 -0.07166,-0.03032 -0.04686,-0.03032 -0.121273,-0.06339 -0.07442,-0.03583 -0.176397,-0.06615 -0.09922,-0.03032 -0.228765,-0.03032 -0.115761,0 -0.203959,0.02756 -0.0882,0.02481 -0.146079,0.07442 -0.05512,0.04686 -0.08544,0.113005 -0.02756,0.06615 -0.02756,0.143322 0,0.107492 0.05513,0.18191 0.05512,0.07166 0.143322,0.126785 0.0882,0.05513 0.201203,0.09922 0.113005,0.0441 0.228765,0.09095 0.118517,0.04685 0.231522,0.104736 0.11576,0.05788 0.203959,0.140566 0.0882,0.08269 0.140567,0.198447 0.05512,0.115761 0.05512,0.27562 z"
         id="path8051" /><path
         d="m 25.206467,91.300601 q 0,0.04961 -0.0055,0.0882 -0.0055,0.03583 -0.01929,0.06064 -0.01378,0.02481 -0.03307,0.03583 -0.01654,0.01103 -0.03859,0.01103 h -1.711604 q -0.06339,0 -0.121273,-0.04134 -0.05512,-0.0441 -0.05512,-0.151591 v -3.180662 q 0,-0.107492 0.05512,-0.148835 0.05788,-0.0441 0.121273,-0.0441 h 1.692311 q 0.02205,0 0.03859,0.01103 0.01929,0.01103 0.03032,0.03583 0.01103,0.02481 0.01654,0.06339 0.0083,0.03583 0.0083,0.09095 0,0.04961 -0.0083,0.0882 -0.0055,0.03583 -0.01654,0.06064 -0.01103,0.02205 -0.03032,0.03307 -0.01654,0.01103 -0.03859,0.01103 h -1.394641 v 1.11902 h 1.196194 q 0.02205,0 0.03859,0.01378 0.01929,0.01102 0.03032,0.03307 0.01378,0.02205 0.01929,0.06064 0.0055,0.03859 0.0055,0.09095 0,0.04961 -0.0055,0.08544 -0.0055,0.03583 -0.01929,0.05788 -0.01103,0.02205 -0.03032,0.03307 -0.01654,0.0083 -0.03859,0.0083 h -1.196194 v 1.276124 H 25.11 q 0.02205,0 0.03859,0.01102 0.01929,0.01103 0.03307,0.03583 0.01378,0.02205 0.01929,0.06064 0.0055,0.03583 0.0055,0.09095 z"
         id="path8053" /><path
         d="m 28.679287,87.924249 q 0,0.0882 -0.01378,0.126786 -0.01378,0.03859 -0.04961,0.03859 -0.02205,0 -0.05237,-0.01102 -0.02756,-0.01103 -0.07166,-0.02481 -0.04134,-0.01654 -0.09647,-0.02756 -0.05512,-0.01378 -0.126785,-0.01378 -0.20396,0 -0.289402,0.140566 -0.08269,0.140567 -0.08269,0.449262 v 0.272864 h 0.553997 q 0.02205,0 0.03859,0.01103 0.01654,0.0083 0.02756,0.03307 0.01378,0.02205 0.01929,0.05788 0.0055,0.03583 0.0055,0.0882 0,0.09922 -0.02481,0.143323 -0.02205,0.0441 -0.06615,0.0441 H 27.8965 v 2.174647 q 0,0.02205 -0.01103,0.03859 -0.01103,0.01378 -0.03859,0.02481 -0.02481,0.01103 -0.06891,0.01654 -0.0441,0.0055 -0.110248,0.0055 -0.06615,0 -0.110249,-0.0055 -0.0441,-0.0055 -0.07166,-0.01654 -0.02481,-0.01103 -0.03583,-0.02481 -0.01102,-0.01654 -0.01102,-0.03859 V 89.25274 h -1.113508 v 2.174647 q 0,0.02205 -0.01103,0.03859 -0.01102,0.01378 -0.03859,0.02481 -0.02481,0.01103 -0.06891,0.01654 -0.0441,0.0055 -0.110248,0.0055 -0.06615,0 -0.110248,-0.0055 -0.0441,-0.0055 -0.07166,-0.01654 -0.02481,-0.01103 -0.03583,-0.02481 -0.01103,-0.01654 -0.01103,-0.03859 V 89.25274 h -0.350038 q -0.0441,0 -0.06615,-0.0441 -0.02205,-0.0441 -0.02205,-0.143323 0,-0.05237 0.0055,-0.0882 0.0055,-0.03583 0.01654,-0.05788 0.01103,-0.02481 0.02756,-0.03307 0.01654,-0.01103 0.03859,-0.01103 h 0.350038 V 88.64086 q 0,-0.256328 0.04961,-0.438237 0.04961,-0.184666 0.148835,-0.303183 0.09922,-0.118517 0.245302,-0.173641 0.148835,-0.05788 0.344526,-0.05788 0.121273,0 0.212228,0.02205 0.09096,0.01929 0.148835,0.0441 0.02756,0.01103 0.0441,0.02756 0.01654,0.01654 0.02756,0.0441 0.01103,0.02481 0.01378,0.06339 0.0055,0.03583 0.0055,0.0882 0,0.0882 -0.01378,0.129542 -0.01378,0.03859 -0.04961,0.03859 -0.02205,0 -0.05237,-0.01102 -0.02756,-0.01378 -0.07166,-0.02756 -0.0441,-0.01654 -0.09922,-0.02756 -0.05512,-0.01378 -0.126785,-0.01378 -0.203959,0 -0.286646,0.140567 -0.08269,0.140566 -0.08269,0.449261 v 0.23979 h 1.113508 v -0.267352 q 0,-0.256327 0.04961,-0.438237 0.05237,-0.184665 0.151592,-0.303182 0.09922,-0.118517 0.245302,-0.173641 0.148835,-0.05788 0.344526,-0.05788 0.118517,0 0.209471,0.02205 0.09371,0.01929 0.151592,0.0441 0.02481,0.01102 0.04134,0.02756 0.01929,0.01654 0.02756,0.0441 0.01103,0.02481 0.01378,0.06339 0.0055,0.03583 0.0055,0.0882 z"
         id="path8055" /><path
         d="m 31.019306,90.079602 q 0,0.107492 -0.05512,0.154348 -0.05237,0.0441 -0.121273,0.0441 h -1.626161 q 0,0.206715 0.04134,0.372088 0.04134,0.165372 0.13781,0.283889 0.09647,0.118517 0.250815,0.18191 0.154347,0.06339 0.3776,0.06339 0.176397,0 0.314208,-0.02756 0.13781,-0.03032 0.237033,-0.06615 0.10198,-0.03583 0.165373,-0.06339 0.06615,-0.03032 0.09922,-0.03032 0.01929,0 0.03308,0.01103 0.01654,0.0083 0.02481,0.02756 0.0083,0.01929 0.01103,0.05512 0.0055,0.03307 0.0055,0.08269 0,0.03583 -0.0028,0.06339 -0.0028,0.02481 -0.0083,0.04686 -0.0028,0.01929 -0.01378,0.03583 -0.0083,0.01654 -0.02481,0.03307 -0.01378,0.01378 -0.0882,0.04961 -0.07442,0.03307 -0.192934,0.06615 -0.118517,0.03307 -0.275621,0.05788 -0.154347,0.02756 -0.330744,0.02756 -0.305939,0 -0.537461,-0.08544 -0.228765,-0.08544 -0.385868,-0.253571 -0.157104,-0.168129 -0.237034,-0.4217 -0.07993,-0.253571 -0.07993,-0.589828 0,-0.31972 0.08269,-0.573291 0.08269,-0.256327 0.237034,-0.432724 0.157104,-0.179154 0.3776,-0.272865 0.220496,-0.09647 0.493361,-0.09647 0.292158,0 0.496117,0.09371 0.206715,0.09371 0.339013,0.253571 0.132298,0.157104 0.192935,0.372088 0.06339,0.212228 0.06339,0.454774 z m -0.45753,-0.135054 q 0.0083,-0.358307 -0.15986,-0.562266 -0.165372,-0.203959 -0.493361,-0.203959 -0.168128,0 -0.294914,0.06339 -0.126785,0.06339 -0.212227,0.168128 -0.08544,0.104736 -0.132298,0.245302 -0.04686,0.137811 -0.05237,0.289402 z"
         id="path8057" /><path
         d="m 33.494378,91.049787 q 0,0.04686 -0.0028,0.08269 -0.0028,0.03307 -0.01102,0.05788 -0.0055,0.02205 -0.01654,0.04134 -0.0083,0.01654 -0.0441,0.05237 -0.03308,0.03307 -0.115761,0.08544 -0.08269,0.04961 -0.187422,0.09095 -0.10198,0.03859 -0.223253,0.06339 -0.121273,0.02481 -0.250814,0.02481 -0.267352,0 -0.474068,-0.0882 -0.206715,-0.0882 -0.347282,-0.256327 -0.13781,-0.170885 -0.212228,-0.416187 -0.07166,-0.248058 -0.07166,-0.570535 0,-0.366575 0.0882,-0.628414 0.09095,-0.264596 0.245302,-0.432725 0.157104,-0.168128 0.366575,-0.248058 0.212228,-0.08269 0.457531,-0.08269 0.118516,0 0.228765,0.02205 0.113004,0.02205 0.206715,0.05788 0.09371,0.03583 0.165372,0.08269 0.07442,0.04685 0.107493,0.07993 0.03307,0.03307 0.0441,0.05237 0.01378,0.01929 0.02205,0.04686 0.0083,0.02481 0.01103,0.05788 0.0028,0.03307 0.0028,0.08269 0,0.107493 -0.02481,0.151592 -0.02481,0.04134 -0.06064,0.04134 -0.04134,0 -0.09647,-0.0441 -0.05237,-0.04686 -0.135054,-0.10198 -0.08269,-0.05512 -0.201203,-0.09922 -0.115761,-0.04686 -0.275621,-0.04686 -0.327988,0 -0.504386,0.253571 -0.173641,0.250815 -0.173641,0.730395 0,0.23979 0.0441,0.421699 0.04686,0.179154 0.135054,0.300427 0.0882,0.121273 0.214984,0.181909 0.129542,0.05788 0.294914,0.05788 0.157104,0 0.275621,-0.04961 0.118516,-0.04961 0.203959,-0.107492 0.0882,-0.06064 0.146079,-0.107492 0.06064,-0.04961 0.09371,-0.04961 0.01929,0 0.03307,0.01102 0.01378,0.01103 0.02205,0.03859 0.01102,0.02481 0.01378,0.06615 0.0055,0.03859 0.0055,0.09371 z"
         id="path8059" /><path
         d="m 35.387893,91.245477 q 0,0.07993 -0.01102,0.126786 -0.01103,0.04685 -0.03308,0.06891 -0.02205,0.02205 -0.06615,0.04134 -0.0441,0.01929 -0.101979,0.03032 -0.05512,0.01378 -0.118517,0.02205 -0.06339,0.0083 -0.126786,0.0083 -0.192934,0 -0.330744,-0.04961 -0.137811,-0.05237 -0.226009,-0.154348 -0.0882,-0.104735 -0.129542,-0.261839 -0.03859,-0.15986 -0.03859,-0.374844 V 89.25274 h -0.347282 q -0.04134,0 -0.06615,-0.0441 -0.02481,-0.0441 -0.02481,-0.143323 0,-0.05237 0.0055,-0.0882 0.0083,-0.03583 0.01929,-0.05788 0.01103,-0.02481 0.02756,-0.03307 0.01929,-0.01103 0.04134,-0.01103 h 0.344526 v -0.589828 q 0,-0.01929 0.0083,-0.03583 0.01102,-0.01654 0.03583,-0.02756 0.02756,-0.01378 0.07166,-0.01929 0.0441,-0.0055 0.110248,-0.0055 0.06891,0 0.113005,0.0055 0.0441,0.0055 0.06891,0.01929 0.02481,0.01103 0.03583,0.02756 0.01103,0.01654 0.01103,0.03583 v 0.589828 h 0.636684 q 0.02205,0 0.03859,0.01103 0.01654,0.0083 0.02756,0.03307 0.01378,0.02205 0.01929,0.05788 0.0055,0.03583 0.0055,0.0882 0,0.09922 -0.02481,0.143323 -0.02481,0.0441 -0.06615,0.0441 h -0.636684 v 1.383616 q 0,0.256327 0.07442,0.388625 0.07717,0.129542 0.272864,0.129542 0.06339,0 0.113005,-0.01103 0.04961,-0.01378 0.0882,-0.02756 0.03859,-0.01378 0.06615,-0.02481 0.02756,-0.01378 0.04961,-0.01378 0.01378,0 0.02481,0.0083 0.01378,0.0055 0.01929,0.02481 0.0083,0.01929 0.01378,0.05237 0.0055,0.03307 0.0055,0.08269 z"
         id="path8061" /><path
         d="m 39.362343,90.476496 q 0,0.245302 -0.08544,0.443749 -0.08544,0.195691 -0.245302,0.336257 -0.15986,0.140567 -0.394138,0.21774 -0.234277,0.07442 -0.529191,0.07442 -0.179154,0 -0.336257,-0.03032 -0.154348,-0.02756 -0.275621,-0.06615 -0.121273,-0.04134 -0.201203,-0.08269 -0.07993,-0.0441 -0.10198,-0.06339 -0.01929,-0.01929 -0.03032,-0.03859 -0.01102,-0.01929 -0.01929,-0.04686 -0.0083,-0.02756 -0.01378,-0.06615 -0.0028,-0.04134 -0.0028,-0.09922 0,-0.09922 0.01929,-0.13781 0.01929,-0.03859 0.05512,-0.03859 0.02481,0 0.09647,0.0441 0.07442,0.0441 0.187422,0.09647 0.115761,0.04961 0.267352,0.09371 0.154348,0.0441 0.34177,0.0441 0.181909,0 0.31972,-0.04686 0.13781,-0.04685 0.231521,-0.132298 0.09371,-0.08544 0.140566,-0.201203 0.04686,-0.118517 0.04686,-0.256327 0,-0.151591 -0.06064,-0.272864 -0.05788,-0.121273 -0.173641,-0.209472 -0.113004,-0.0882 -0.281133,-0.135054 -0.165372,-0.04686 -0.3776,-0.04686 h -0.339013 q -0.02205,0 -0.0441,-0.0083 -0.01929,-0.01102 -0.03583,-0.03307 -0.01378,-0.02205 -0.02481,-0.05788 -0.0083,-0.03583 -0.0083,-0.09371 0,-0.05237 0.0083,-0.08544 0.0083,-0.03583 0.02205,-0.05512 0.01654,-0.02205 0.03583,-0.03032 0.01929,-0.01103 0.0441,-0.01103 h 0.311451 q 0.18191,0 0.325232,-0.04685 0.146079,-0.04686 0.245303,-0.135054 0.101979,-0.0882 0.154347,-0.209472 0.05512,-0.124029 0.05512,-0.27562 0,-0.110249 -0.03583,-0.209472 -0.03583,-0.10198 -0.107492,-0.176397 -0.07166,-0.07442 -0.184666,-0.115761 -0.110249,-0.0441 -0.256327,-0.0441 -0.15986,0 -0.294914,0.04961 -0.132298,0.04686 -0.237034,0.10198 -0.104736,0.05512 -0.173641,0.104736 -0.06891,0.04685 -0.09647,0.04685 -0.01929,0 -0.03583,-0.0055 -0.01378,-0.0083 -0.02481,-0.02756 -0.0083,-0.02205 -0.01378,-0.05788 -0.0028,-0.03859 -0.0028,-0.09922 0,-0.04134 0.0028,-0.07166 0.0028,-0.03307 0.01102,-0.05512 0.0083,-0.02481 0.01929,-0.0441 0.01102,-0.01929 0.03583,-0.0441 0.02756,-0.02756 0.107492,-0.07717 0.07993,-0.04961 0.195691,-0.09647 0.118516,-0.04961 0.270108,-0.08269 0.154347,-0.03307 0.330745,-0.03307 0.248058,0 0.43548,0.06339 0.187422,0.06339 0.311451,0.179154 0.126786,0.11576 0.187422,0.278376 0.06339,0.15986 0.06339,0.355551 0,0.168129 -0.0441,0.314208 -0.0441,0.143322 -0.129542,0.256327 -0.08544,0.110248 -0.209471,0.190178 -0.12403,0.07717 -0.286646,0.107492 v 0.0055 q 0.184666,0.01929 0.336257,0.09371 0.154348,0.07166 0.264596,0.18191 0.110248,0.110248 0.170885,0.259083 0.06339,0.146079 0.06339,0.314208 z"
         id="path8063" /><path
         d="m 43.369865,90.495789 q 0,0.250815 -0.09371,0.446506 -0.09096,0.19569 -0.256327,0.333501 -0.162617,0.135054 -0.385869,0.203959 -0.220497,0.06891 -0.476824,0.06891 -0.179153,0 -0.333501,-0.03032 -0.151591,-0.03032 -0.272864,-0.07442 -0.118517,-0.0441 -0.201203,-0.09095 -0.07993,-0.04686 -0.113005,-0.07993 -0.03032,-0.03307 -0.04686,-0.08269 -0.01378,-0.05237 -0.01378,-0.13781 0,-0.06064 0.0055,-0.09922 0.0055,-0.04134 0.01654,-0.06615 0.01102,-0.02481 0.02756,-0.03307 0.01654,-0.01103 0.03859,-0.01103 0.03859,0 0.107492,0.04686 0.07166,0.04685 0.18191,0.101979 0.110248,0.05513 0.264596,0.104736 0.157104,0.04686 0.361063,0.04686 0.154347,0 0.281133,-0.04134 0.129542,-0.04134 0.220496,-0.115761 0.09371,-0.07717 0.143323,-0.187422 0.04961,-0.110248 0.04961,-0.250815 0,-0.151591 -0.06891,-0.259083 -0.06891,-0.107492 -0.18191,-0.187422 -0.113004,-0.08269 -0.259083,-0.148835 -0.143323,-0.06891 -0.294914,-0.137811 -0.151592,-0.07166 -0.294915,-0.157103 -0.143322,-0.08544 -0.256327,-0.201203 -0.113004,-0.115761 -0.184665,-0.270109 -0.06891,-0.157103 -0.06891,-0.374844 0,-0.223252 0.07993,-0.396893 0.08269,-0.176397 0.226009,-0.294914 0.146079,-0.118517 0.344526,-0.179154 0.201203,-0.06339 0.432724,-0.06339 0.118517,0 0.237034,0.02205 0.121273,0.01929 0.226009,0.05512 0.107492,0.03307 0.190178,0.07717 0.08269,0.04134 0.107492,0.06891 0.02756,0.02481 0.03583,0.04134 0.0083,0.01378 0.01378,0.03859 0.0055,0.02205 0.0083,0.05512 0.0028,0.03308 0.0028,0.08544 0,0.04961 -0.0055,0.0882 -0.0028,0.03859 -0.01102,0.06615 -0.0083,0.02481 -0.02481,0.03859 -0.01378,0.01103 -0.03307,0.01103 -0.03032,0 -0.09647,-0.03859 -0.06339,-0.03859 -0.157104,-0.08544 -0.09371,-0.04961 -0.223252,-0.0882 -0.126786,-0.04134 -0.286646,-0.04134 -0.148835,0 -0.259083,0.04134 -0.110248,0.03859 -0.18191,0.104736 -0.07166,0.06615 -0.107492,0.157104 -0.03583,0.09095 -0.03583,0.192934 0,0.148835 0.06891,0.256327 0.06891,0.107492 0.181909,0.190178 0.115761,0.08269 0.26184,0.151592 0.146079,0.06891 0.29767,0.140566 0.151591,0.06891 0.29767,0.154348 0.146079,0.08269 0.259084,0.198447 0.11576,0.113004 0.184665,0.270108 0.07166,0.154347 0.07166,0.366575 z"
         id="path8065" /><path
         d="m 46.11229,90.079602 q 0,0.107492 -0.05512,0.154348 -0.05237,0.0441 -0.121273,0.0441 h -1.626162 q 0,0.206715 0.04134,0.372088 0.04134,0.165372 0.13781,0.283889 0.09647,0.118517 0.250815,0.18191 0.154348,0.06339 0.3776,0.06339 0.176398,0 0.314208,-0.02756 0.13781,-0.03032 0.237034,-0.06615 0.101979,-0.03583 0.165372,-0.06339 0.06615,-0.03032 0.09922,-0.03032 0.01929,0 0.03308,0.01103 0.01654,0.0083 0.02481,0.02756 0.0083,0.01929 0.01102,0.05512 0.0055,0.03307 0.0055,0.08269 0,0.03583 -0.0028,0.06339 -0.0028,0.02481 -0.0083,0.04686 -0.0028,0.01929 -0.01378,0.03583 -0.0083,0.01654 -0.02481,0.03307 -0.01378,0.01378 -0.0882,0.04961 -0.07442,0.03307 -0.192935,0.06615 -0.118517,0.03307 -0.27562,0.05788 -0.154348,0.02756 -0.330745,0.02756 -0.305939,0 -0.53746,-0.08544 -0.228765,-0.08544 -0.385869,-0.253571 -0.157104,-0.168129 -0.237034,-0.4217 -0.07993,-0.253571 -0.07993,-0.589828 0,-0.31972 0.08269,-0.573291 0.08269,-0.256327 0.237034,-0.432724 0.157104,-0.179154 0.3776,-0.272865 0.220497,-0.09647 0.493361,-0.09647 0.292158,0 0.496117,0.09371 0.206716,0.09371 0.339014,0.253571 0.132297,0.157104 0.192934,0.372088 0.06339,0.212228 0.06339,0.454774 z m -0.45753,-0.135054 q 0.0083,-0.358307 -0.15986,-0.562266 -0.165373,-0.203959 -0.493361,-0.203959 -0.168129,0 -0.294914,0.06339 -0.126786,0.06339 -0.212228,0.168128 -0.08544,0.104736 -0.132298,0.245302 -0.04686,0.137811 -0.05237,0.289402 z"
         id="path8067" /><path
         d="m 48.253863,89.109418 q 0,0.06064 -0.0028,0.101979 -0.0028,0.04134 -0.01102,0.06615 -0.0083,0.02205 -0.02205,0.03583 -0.01103,0.01103 -0.03308,0.01103 -0.02205,0 -0.05512,-0.01103 -0.03032,-0.01378 -0.07166,-0.02481 -0.03859,-0.01378 -0.0882,-0.02481 -0.04961,-0.01103 -0.107492,-0.01103 -0.06891,0 -0.135054,0.02756 -0.06615,0.02756 -0.140566,0.09095 -0.07166,0.06339 -0.151592,0.168129 -0.07993,0.104736 -0.176397,0.256327 v 1.631674 q 0,0.02205 -0.01102,0.03859 -0.01103,0.01378 -0.03583,0.02481 -0.02481,0.01103 -0.06891,0.01654 -0.0441,0.0055 -0.113004,0.0055 -0.06615,0 -0.110248,-0.0055 -0.0441,-0.0055 -0.07166,-0.01654 -0.02481,-0.01103 -0.03583,-0.02481 -0.0083,-0.01654 -0.0083,-0.03859 v -2.480586 q 0,-0.02205 0.0083,-0.03583 0.0083,-0.01654 0.03307,-0.02756 0.02481,-0.01378 0.06339,-0.01654 0.03859,-0.0055 0.10198,-0.0055 0.06064,0 0.09922,0.0055 0.04134,0.0028 0.06339,0.01654 0.02205,0.01103 0.03032,0.02756 0.01103,0.01378 0.01103,0.03583 v 0.361063 q 0.101979,-0.148835 0.190178,-0.242546 0.09096,-0.09371 0.170885,-0.146079 0.07993,-0.05512 0.157104,-0.07442 0.07993,-0.02205 0.15986,-0.02205 0.03583,0 0.07993,0.0055 0.04686,0.0028 0.09647,0.01378 0.04961,0.01102 0.0882,0.02481 0.04134,0.01378 0.05788,0.02756 0.01654,0.01378 0.02205,0.02756 0.0055,0.01102 0.0083,0.03032 0.0055,0.01929 0.0055,0.05788 0.0028,0.03583 0.0028,0.09922 z"
         id="path8069" /><path
         d="m 50.858476,88.941289 q 0,0.01103 -0.0028,0.02481 0,0.01103 -0.0028,0.02481 -0.0028,0.01378 -0.0083,0.03032 -0.0028,0.01654 -0.0083,0.03583 l -0.846156,2.356556 q -0.01102,0.03032 -0.03032,0.04961 -0.01654,0.01929 -0.05237,0.03032 -0.03583,0.01102 -0.09095,0.01378 -0.05512,0.0055 -0.13781,0.0055 -0.08269,0 -0.13781,-0.0055 -0.05512,-0.0055 -0.09096,-0.01654 -0.03307,-0.01103 -0.05237,-0.03032 -0.01929,-0.01929 -0.03032,-0.04685 L 48.52397,89.05705 q -0.01102,-0.03308 -0.01929,-0.05788 -0.0055,-0.02481 -0.0083,-0.03583 0,-0.01378 0,-0.02205 0,-0.02205 0.01102,-0.03859 0.01102,-0.01654 0.03583,-0.02481 0.02756,-0.01102 0.0689,-0.01378 0.0441,-0.0028 0.107492,-0.0028 0.07993,0 0.126786,0.0055 0.04961,0.0028 0.07442,0.01378 0.02756,0.01102 0.03859,0.02756 0.01378,0.01654 0.02481,0.04134 l 0.700076,2.045105 0.01103,0.03307 0.0083,-0.03307 0.691808,-2.045105 q 0.0055,-0.02481 0.01929,-0.04134 0.01378,-0.01654 0.03859,-0.02756 0.02756,-0.01102 0.07166,-0.01378 0.04686,-0.0055 0.121273,-0.0055 0.06339,0 0.104736,0.0028 0.04134,0.0028 0.06339,0.01378 0.02481,0.01102 0.03307,0.02756 0.01103,0.01378 0.01103,0.03583 z"
         id="path8071" /><path
         d="m 53.435528,90.079602 q 0,0.107492 -0.05512,0.154348 -0.05237,0.0441 -0.121273,0.0441 h -1.626162 q 0,0.206715 0.04134,0.372088 0.04134,0.165372 0.137811,0.283889 0.09647,0.118517 0.250814,0.18191 0.154348,0.06339 0.377601,0.06339 0.176397,0 0.314207,-0.02756 0.137811,-0.03032 0.237034,-0.06615 0.10198,-0.03583 0.165372,-0.06339 0.06615,-0.03032 0.09922,-0.03032 0.01929,0 0.03307,0.01103 0.01654,0.0083 0.02481,0.02756 0.0083,0.01929 0.01102,0.05512 0.0055,0.03307 0.0055,0.08269 0,0.03583 -0.0028,0.06339 -0.0028,0.02481 -0.0083,0.04686 -0.0028,0.01929 -0.01378,0.03583 -0.0083,0.01654 -0.02481,0.03307 -0.01378,0.01378 -0.0882,0.04961 -0.07442,0.03307 -0.192934,0.06615 -0.118517,0.03307 -0.275621,0.05788 -0.154348,0.02756 -0.330745,0.02756 -0.305939,0 -0.53746,-0.08544 -0.228765,-0.08544 -0.385869,-0.253571 -0.157104,-0.168129 -0.237034,-0.4217 -0.07993,-0.253571 -0.07993,-0.589828 0,-0.31972 0.08269,-0.573291 0.08269,-0.256327 0.237033,-0.432724 0.157104,-0.179154 0.377601,-0.272865 0.220496,-0.09647 0.49336,-0.09647 0.292158,0 0.496118,0.09371 0.206715,0.09371 0.339013,0.253571 0.132298,0.157104 0.192934,0.372088 0.06339,0.212228 0.06339,0.454774 z m -0.45753,-0.135054 q 0.0083,-0.358307 -0.15986,-0.562266 -0.165372,-0.203959 -0.493361,-0.203959 -0.168129,0 -0.294914,0.06339 -0.126785,0.06339 -0.212228,0.168128 -0.08544,0.104736 -0.132298,0.245302 -0.04685,0.137811 -0.05237,0.289402 z"
         id="path8073" /><path
         d="m 55.577101,89.109418 q 0,0.06064 -0.0028,0.101979 -0.0028,0.04134 -0.01103,0.06615 -0.0083,0.02205 -0.02205,0.03583 -0.01102,0.01103 -0.03307,0.01103 -0.02205,0 -0.05512,-0.01103 -0.03032,-0.01378 -0.07166,-0.02481 -0.03859,-0.01378 -0.0882,-0.02481 -0.04961,-0.01103 -0.107492,-0.01103 -0.06891,0 -0.135054,0.02756 -0.06615,0.02756 -0.140567,0.09095 -0.07166,0.06339 -0.151591,0.168129 -0.07993,0.104736 -0.176397,0.256327 v 1.631674 q 0,0.02205 -0.01102,0.03859 -0.01103,0.01378 -0.03583,0.02481 -0.02481,0.01103 -0.06891,0.01654 -0.0441,0.0055 -0.113005,0.0055 -0.06615,0 -0.110248,-0.0055 -0.0441,-0.0055 -0.07166,-0.01654 -0.02481,-0.01103 -0.03583,-0.02481 -0.0083,-0.01654 -0.0083,-0.03859 v -2.480586 q 0,-0.02205 0.0083,-0.03583 0.0083,-0.01654 0.03308,-0.02756 0.02481,-0.01378 0.06339,-0.01654 0.03859,-0.0055 0.10198,-0.0055 0.06064,0 0.09922,0.0055 0.04134,0.0028 0.06339,0.01654 0.02205,0.01103 0.03032,0.02756 0.01102,0.01378 0.01102,0.03583 v 0.361063 q 0.10198,-0.148835 0.190178,-0.242546 0.09096,-0.09371 0.170885,-0.146079 0.07993,-0.05512 0.157104,-0.07442 0.07993,-0.02205 0.15986,-0.02205 0.03583,0 0.07993,0.0055 0.04686,0.0028 0.09647,0.01378 0.04961,0.01102 0.0882,0.02481 0.04134,0.01378 0.05788,0.02756 0.01654,0.01378 0.02205,0.02756 0.0055,0.01102 0.0083,0.03032 0.0055,0.01929 0.0055,0.05788 0.0028,0.03583 0.0028,0.09922 z"
         id="path8075" /><path
         d="m 59.40823,91.300601 q 0,0.04961 -0.0055,0.0882 -0.0055,0.03583 -0.01929,0.06064 -0.01378,0.02481 -0.03307,0.03583 -0.01654,0.01103 -0.03859,0.01103 h -1.711604 q -0.06339,0 -0.121273,-0.04134 -0.05512,-0.0441 -0.05512,-0.151591 v -3.180662 q 0,-0.107492 0.05512,-0.148835 0.05788,-0.0441 0.121273,-0.0441 h 1.692311 q 0.02205,0 0.03859,0.01103 0.01929,0.01103 0.03032,0.03583 0.01103,0.02481 0.01654,0.06339 0.0083,0.03583 0.0083,0.09095 0,0.04961 -0.0083,0.0882 -0.0055,0.03583 -0.01654,0.06064 -0.01102,0.02205 -0.03032,0.03307 -0.01654,0.01103 -0.03859,0.01103 h -1.39464 v 1.11902 h 1.196193 q 0.02205,0 0.03859,0.01378 0.01929,0.01102 0.03032,0.03307 0.01378,0.02205 0.01929,0.06064 0.0055,0.03859 0.0055,0.09095 0,0.04961 -0.0055,0.08544 -0.0055,0.03583 -0.01929,0.05788 -0.01103,0.02205 -0.03032,0.03307 -0.01654,0.0083 -0.03859,0.0083 h -1.196193 v 1.276124 h 1.413933 q 0.02205,0 0.03859,0.01102 0.01929,0.01103 0.03307,0.03583 0.01378,0.02205 0.01929,0.06064 0.0055,0.03583 0.0055,0.09095 z"
         id="path8077" /><path
         d="m 63.807135,91.427387 q 0,0.02205 -0.01103,0.03859 -0.01102,0.01378 -0.03583,0.02481 -0.02481,0.01103 -0.0689,0.01654 -0.0441,0.0055 -0.110248,0.0055 -0.06891,0 -0.113005,-0.0055 -0.0441,-0.0055 -0.07166,-0.01654 -0.02481,-0.01103 -0.03583,-0.02481 -0.01102,-0.01654 -0.01102,-0.03859 v -1.507645 q 0,-0.157104 -0.02756,-0.286645 -0.02756,-0.129542 -0.0882,-0.223253 -0.06064,-0.09371 -0.154348,-0.143323 -0.09371,-0.04961 -0.220496,-0.04961 -0.157104,0 -0.316964,0.121273 -0.157103,0.121273 -0.347282,0.35555 v 1.733654 q 0,0.02205 -0.01103,0.03859 -0.01102,0.01378 -0.03859,0.02481 -0.02481,0.01103 -0.06891,0.01654 -0.0441,0.0055 -0.110248,0.0055 -0.06339,0 -0.110248,-0.0055 -0.0441,-0.0055 -0.07166,-0.01654 -0.02481,-0.01103 -0.03583,-0.02481 -0.0083,-0.01654 -0.0083,-0.03859 v -1.507645 q 0,-0.157104 -0.03032,-0.286645 -0.03032,-0.129542 -0.09096,-0.223253 -0.06064,-0.09371 -0.154347,-0.143323 -0.09096,-0.04961 -0.217741,-0.04961 -0.157103,0 -0.316963,0.121273 -0.15986,0.121273 -0.347282,0.35555 v 1.733654 q 0,0.02205 -0.01103,0.03859 -0.01102,0.01378 -0.03583,0.02481 -0.02481,0.01103 -0.06891,0.01654 -0.0441,0.0055 -0.113004,0.0055 -0.06615,0 -0.110249,-0.0055 -0.0441,-0.0055 -0.07166,-0.01654 -0.02481,-0.01103 -0.03583,-0.02481 -0.0083,-0.01654 -0.0083,-0.03859 v -2.480586 q 0,-0.02205 0.0083,-0.03583 0.0083,-0.01654 0.03307,-0.02756 0.02481,-0.01378 0.06339,-0.01654 0.03859,-0.0055 0.101979,-0.0055 0.06064,0 0.09922,0.0055 0.04134,0.0028 0.06339,0.01654 0.02205,0.01103 0.03032,0.02756 0.01102,0.01378 0.01102,0.03583 v 0.327989 q 0.209472,-0.234278 0.405163,-0.34177 0.198447,-0.110248 0.39965,-0.110248 0.154347,0 0.27562,0.03583 0.124029,0.03583 0.21774,0.10198 0.09371,0.06339 0.15986,0.154347 0.06615,0.0882 0.110249,0.198447 0.124029,-0.135054 0.234277,-0.228765 0.113005,-0.09371 0.214984,-0.151592 0.104736,-0.05788 0.201203,-0.08269 0.09922,-0.02756 0.198447,-0.02756 0.23979,0 0.402406,0.08544 0.162616,0.08269 0.26184,0.223252 0.101979,0.140567 0.143323,0.330745 0.0441,0.187422 0.0441,0.396894 z"
         id="path8079" /><path
         d="m 66.761786,91.427387 q 0,0.02205 -0.01103,0.03859 -0.0083,0.01378 -0.03307,0.02481 -0.02481,0.01103 -0.06615,0.01654 -0.03859,0.0055 -0.09647,0.0055 -0.06339,0 -0.104736,-0.0055 -0.03859,-0.0055 -0.06339,-0.01654 -0.02205,-0.01103 -0.03032,-0.02481 -0.0083,-0.01654 -0.0083,-0.03859 v -0.327989 q -0.212228,0.234278 -0.418943,0.34177 -0.206716,0.107492 -0.418943,0.107492 -0.248059,0 -0.418944,-0.08269 -0.168128,-0.08269 -0.272864,-0.223253 -0.104736,-0.143323 -0.151592,-0.330745 -0.0441,-0.190178 -0.0441,-0.460286 v -1.504889 q 0,-0.02205 0.0083,-0.03583 0.01103,-0.01654 0.03859,-0.02756 0.02756,-0.01378 0.07166,-0.01654 0.0441,-0.0055 0.110248,-0.0055 0.06615,0 0.110249,0.0055 0.0441,0.0028 0.06891,0.01654 0.02756,0.01103 0.03859,0.02756 0.01102,0.01378 0.01102,0.03583 v 1.444252 q 0,0.217741 0.03032,0.350039 0.03307,0.129541 0.09647,0.223252 0.06615,0.09096 0.165372,0.143323 0.09922,0.04961 0.231522,0.04961 0.170884,0 0.339013,-0.121273 0.170885,-0.121273 0.361063,-0.355551 v -1.733654 q 0,-0.02205 0.0083,-0.03583 0.01103,-0.01654 0.03859,-0.02756 0.02756,-0.01378 0.06891,-0.01654 0.0441,-0.0055 0.113004,-0.0055 0.06615,0 0.110248,0.0055 0.0441,0.0028 0.06891,0.01654 0.02481,0.01103 0.03583,0.02756 0.01378,0.01378 0.01378,0.03583 z"
         id="path8081" /><path
         d="m 68.057204,91.427387 q 0,0.02205 -0.01102,0.03859 -0.01103,0.01378 -0.03583,0.02481 -0.02481,0.01103 -0.06891,0.01654 -0.0441,0.0055 -0.113005,0.0055 -0.06615,0 -0.110248,-0.0055 -0.0441,-0.0055 -0.07166,-0.01654 -0.02481,-0.01103 -0.03583,-0.02481 -0.0083,-0.01654 -0.0083,-0.03859 v -3.682291 q 0,-0.02205 0.0083,-0.03859 0.01103,-0.01654 0.03583,-0.02756 0.02756,-0.01102 0.07166,-0.01654 0.0441,-0.0055 0.110248,-0.0055 0.06891,0 0.113005,0.0055 0.0441,0.0055 0.06891,0.01654 0.02481,0.01103 0.03583,0.02756 0.01102,0.01654 0.01102,0.03859 z"
         id="path8083" /><path
         d="m 70.766552,91.430143 q 0,0.03307 -0.02205,0.04961 -0.02205,0.01654 -0.06064,0.02481 -0.03859,0.0083 -0.113005,0.0083 -0.07166,0 -0.11576,-0.0083 -0.04134,-0.0083 -0.06064,-0.02481 -0.01929,-0.01654 -0.01929,-0.04961 v -0.248058 q -0.162616,0.173641 -0.363819,0.270108 -0.198447,0.09647 -0.4217,0.09647 -0.195691,0 -0.355551,-0.05237 -0.157103,-0.04961 -0.270108,-0.146079 -0.110248,-0.09647 -0.173641,-0.237034 -0.06064,-0.140566 -0.06064,-0.319719 0,-0.209472 0.08544,-0.36382 0.08544,-0.154347 0.245302,-0.256327 0.15986,-0.101979 0.391382,-0.151591 0.231521,-0.05237 0.520923,-0.05237 h 0.341769 V 89.77642 q 0,-0.143323 -0.03032,-0.253571 -0.03032,-0.110249 -0.09922,-0.18191 -0.06615,-0.07442 -0.173641,-0.110248 -0.107492,-0.03859 -0.264596,-0.03859 -0.168129,0 -0.303183,0.04134 -0.132298,0.03859 -0.234277,0.0882 -0.09922,0.04685 -0.168129,0.0882 -0.06615,0.03859 -0.09922,0.03859 -0.02205,0 -0.03859,-0.01103 -0.01654,-0.01102 -0.03032,-0.03307 -0.01102,-0.02205 -0.01654,-0.05512 -0.0055,-0.03583 -0.0055,-0.07717 0,-0.06891 0.0083,-0.107492 0.01103,-0.04134 0.04686,-0.07717 0.03859,-0.03583 0.129542,-0.08269 0.09095,-0.04961 0.209471,-0.0882 0.118517,-0.04134 0.259084,-0.06615 0.140566,-0.02756 0.283889,-0.02756 0.267352,0 0.454774,0.06064 0.187422,0.06064 0.303183,0.179153 0.11576,0.115761 0.168128,0.289402 0.05237,0.173641 0.05237,0.405162 z m -0.452018,-1.132801 h -0.388625 q -0.187422,0 -0.325232,0.03307 -0.13781,0.03032 -0.228765,0.09371 -0.09095,0.06064 -0.135054,0.148835 -0.04134,0.08544 -0.04134,0.198447 0,0.192934 0.121273,0.308695 0.124029,0.113004 0.344525,0.113004 0.179154,0 0.330745,-0.09095 0.154348,-0.09095 0.322476,-0.278377 z"
         id="path8085" /><path
         d="m 72.839219,91.245477 q 0,0.07993 -0.01103,0.126786 -0.01102,0.04685 -0.03307,0.06891 -0.02205,0.02205 -0.06615,0.04134 -0.0441,0.01929 -0.10198,0.03032 -0.05512,0.01378 -0.118517,0.02205 -0.06339,0.0083 -0.126785,0.0083 -0.192935,0 -0.330745,-0.04961 -0.13781,-0.05237 -0.226009,-0.154348 -0.0882,-0.104735 -0.129542,-0.261839 -0.03859,-0.15986 -0.03859,-0.374844 V 89.25274 h -0.347282 q -0.04134,0 -0.06615,-0.0441 -0.02481,-0.0441 -0.02481,-0.143323 0,-0.05237 0.0055,-0.0882 0.0083,-0.03583 0.01929,-0.05788 0.01102,-0.02481 0.02756,-0.03307 0.01929,-0.01103 0.04134,-0.01103 h 0.344526 v -0.589828 q 0,-0.01929 0.0083,-0.03583 0.01103,-0.01654 0.03583,-0.02756 0.02756,-0.01378 0.07166,-0.01929 0.0441,-0.0055 0.110248,-0.0055 0.06891,0 0.113005,0.0055 0.0441,0.0055 0.06891,0.01929 0.02481,0.01103 0.03583,0.02756 0.01103,0.01654 0.01103,0.03583 v 0.589828 h 0.636683 q 0.02205,0 0.03859,0.01103 0.01654,0.0083 0.02756,0.03307 0.01378,0.02205 0.01929,0.05788 0.0055,0.03583 0.0055,0.0882 0,0.09922 -0.02481,0.143323 -0.02481,0.0441 -0.06615,0.0441 h -0.636683 v 1.383616 q 0,0.256327 0.07442,0.388625 0.07717,0.129542 0.272865,0.129542 0.06339,0 0.113004,-0.01103 0.04961,-0.01378 0.0882,-0.02756 0.03859,-0.01378 0.06615,-0.02481 0.02756,-0.01378 0.04961,-0.01378 0.01378,0 0.02481,0.0083 0.01378,0.0055 0.01929,0.02481 0.0083,0.01929 0.01378,0.05237 0.0055,0.03307 0.0055,0.08269 z"
         id="path8087" /><path
         d="m 75.691895,90.159532 q 0,0.303183 -0.07993,0.55951 -0.07993,0.253571 -0.23979,0.438237 -0.157104,0.184666 -0.396893,0.289401 -0.237034,0.10198 -0.551242,0.10198 -0.305939,0 -0.534704,-0.09095 -0.226009,-0.09096 -0.3776,-0.264596 -0.151591,-0.173641 -0.226009,-0.421699 -0.07442,-0.248059 -0.07442,-0.562266 0,-0.303183 0.07717,-0.556754 0.07993,-0.256327 0.237034,-0.440993 0.15986,-0.184666 0.396894,-0.286645 0.237034,-0.10198 0.553997,-0.10198 0.305939,0 0.531948,0.09095 0.228765,0.09096 0.380356,0.264596 0.151592,0.173641 0.226009,0.421699 0.07717,0.248059 0.07717,0.55951 z m -0.47958,0.03032 q 0,-0.201203 -0.03859,-0.380356 -0.03583,-0.179153 -0.121273,-0.314208 -0.08544,-0.135054 -0.231521,-0.212227 -0.146079,-0.07993 -0.363819,-0.07993 -0.201203,0 -0.347282,0.07166 -0.143323,0.07166 -0.237034,0.203959 -0.09371,0.129542 -0.140566,0.308695 -0.0441,0.179154 -0.0441,0.391382 0,0.203959 0.03583,0.383112 0.03859,0.179154 0.124029,0.314208 0.0882,0.132298 0.234278,0.212228 0.146079,0.07717 0.363819,0.07717 0.198447,0 0.344526,-0.07166 0.146079,-0.07166 0.23979,-0.201203 0.09371,-0.129542 0.13781,-0.308695 0.0441,-0.179153 0.0441,-0.394138 z"
         id="path8089" /><path
         d="m 77.811419,89.109418 q 0,0.06064 -0.0028,0.101979 -0.0028,0.04134 -0.01102,0.06615 -0.0083,0.02205 -0.02205,0.03583 -0.01103,0.01103 -0.03307,0.01103 -0.02205,0 -0.05513,-0.01103 -0.03032,-0.01378 -0.07166,-0.02481 -0.03859,-0.01378 -0.0882,-0.02481 -0.04961,-0.01103 -0.107492,-0.01103 -0.0689,0 -0.135054,0.02756 -0.06615,0.02756 -0.140566,0.09095 -0.07166,0.06339 -0.151592,0.168129 -0.07993,0.104736 -0.176397,0.256327 v 1.631674 q 0,0.02205 -0.01103,0.03859 -0.01102,0.01378 -0.03583,0.02481 -0.02481,0.01103 -0.06891,0.01654 -0.0441,0.0055 -0.113005,0.0055 -0.06615,0 -0.110248,-0.0055 -0.0441,-0.0055 -0.07166,-0.01654 -0.02481,-0.01103 -0.03583,-0.02481 -0.0083,-0.01654 -0.0083,-0.03859 v -2.480586 q 0,-0.02205 0.0083,-0.03583 0.0083,-0.01654 0.03307,-0.02756 0.02481,-0.01378 0.06339,-0.01654 0.03859,-0.0055 0.10198,-0.0055 0.06064,0 0.09922,0.0055 0.04134,0.0028 0.06339,0.01654 0.02205,0.01103 0.03032,0.02756 0.01103,0.01378 0.01103,0.03583 v 0.361063 q 0.10198,-0.148835 0.190178,-0.242546 0.09095,-0.09371 0.170885,-0.146079 0.07993,-0.05512 0.157104,-0.07442 0.07993,-0.02205 0.15986,-0.02205 0.03583,0 0.07993,0.0055 0.04685,0.0028 0.09647,0.01378 0.04961,0.01102 0.0882,0.02481 0.04134,0.01378 0.05788,0.02756 0.01654,0.01378 0.02205,0.02756 0.0055,0.01102 0.0083,0.03032 0.0055,0.01929 0.0055,0.05788 0.0028,0.03583 0.0028,0.09922 z"
         id="path8091" /></g><g
       aria-label="by Jacobtread"
       transform="scale(1.0000436,0.9999564)"
       id="text3843"
       style="font-size:5.64419px;font-family:Calibri;-inkscape-font-specification:Calibri;fill:#b3b3b3;stroke-width:1.22395;stroke-linejoin:bevel;paint-order:stroke markers fill"><path
         d="m 171.65679,89.36724 q 0,0.322446 -0.0717,0.581506 -0.0689,0.256304 -0.2067,0.438196 -0.13504,0.181893 -0.33347,0.278351 -0.19843,0.09646 -0.45473,0.09646 -0.11851,0 -0.22048,-0.0248 -0.0992,-0.02205 -0.19567,-0.07441 -0.0965,-0.05236 -0.19292,-0.132286 -0.0965,-0.07992 -0.20394,-0.192917 v 0.303155 q 0,0.02205 -0.011,0.03858 -0.011,0.01654 -0.0358,0.02756 -0.0248,0.0083 -0.0634,0.01378 -0.0358,0.0055 -0.0937,0.0055 -0.0551,0 -0.0937,-0.0055 -0.0386,-0.0055 -0.0634,-0.01378 -0.0248,-0.01102 -0.0331,-0.02756 -0.008,-0.01654 -0.008,-0.03858 v -3.681952 q 0,-0.02205 0.008,-0.03858 0.011,-0.01654 0.0358,-0.02756 0.0276,-0.01102 0.0717,-0.01654 0.0441,-0.0055 0.11024,-0.0055 0.0689,0 0.11299,0.0055 0.0441,0.0055 0.0689,0.01654 0.0248,0.01102 0.0358,0.02756 0.011,0.01654 0.011,0.03858 v 1.485458 q 0.11024,-0.112994 0.21221,-0.190161 0.10473,-0.07717 0.20394,-0.124017 0.0992,-0.04961 0.19843,-0.07166 0.0992,-0.02205 0.20945,-0.02205 0.27009,0 0.46025,0.107482 0.19291,0.107482 0.31142,0.289375 0.12126,0.179137 0.17638,0.421661 0.0551,0.242524 0.0551,0.512607 z m -0.47954,0.05236 q 0,-0.190161 -0.0303,-0.369297 -0.0276,-0.179137 -0.0992,-0.316935 -0.0717,-0.137798 -0.19016,-0.220476 -0.1185,-0.08544 -0.29488,-0.08544 -0.0882,0 -0.17363,0.0248 -0.0854,0.0248 -0.17362,0.08268 -0.0882,0.05787 -0.18465,0.148821 -0.0937,0.09095 -0.20119,0.228744 v 0.989387 q 0.18741,0.228744 0.35828,0.350006 0.17087,0.118506 0.35552,0.118506 0.17086,0 0.29213,-0.08268 0.12126,-0.08268 0.19567,-0.21772 0.0772,-0.137798 0.11024,-0.305911 0.0358,-0.170869 0.0358,-0.344494 z"
         id="path8142" /><path
         d="m 173.44265,90.709389 -0.33072,0.91222 q -0.0165,0.04409 -0.0854,0.06614 -0.0661,0.0248 -0.20394,0.0248 -0.0717,0 -0.11575,-0.0083 -0.0441,-0.0055 -0.0689,-0.02205 -0.0221,-0.01654 -0.0248,-0.04409 -0.003,-0.02756 0.0138,-0.06614 l 0.34173,-0.862613 q -0.0248,-0.01102 -0.0468,-0.03583 -0.0221,-0.0248 -0.0303,-0.05236 l -0.88466,-2.370119 q -0.0221,-0.05788 -0.0221,-0.09095 0,-0.03307 0.0221,-0.05236 0.022,-0.01929 0.0717,-0.0248 0.0496,-0.0083 0.13229,-0.0083 0.0827,0 0.12953,0.0055 0.0469,0.0028 0.0744,0.01378 0.0276,0.01102 0.0386,0.03307 0.0138,0.01929 0.0276,0.05512 l 0.70828,1.989797 h 0.008 l 0.68347,-2.000821 q 0.0165,-0.05236 0.0386,-0.06614 0.0248,-0.01654 0.0717,-0.02205 0.0468,-0.0083 0.13504,-0.0083 0.0772,0 0.12678,0.0083 0.0496,0.0055 0.0716,0.0248 0.0248,0.01929 0.0248,0.05236 0,0.03307 -0.0165,0.08268 z"
         id="path8144" /><path
         d="m 177.0557,89.810948 q 0,0.212209 -0.0386,0.38859 -0.0386,0.176381 -0.13229,0.300398 -0.0937,0.124018 -0.24803,0.192917 -0.15158,0.06614 -0.37757,0.06614 -0.0772,0 -0.15433,-0.01378 -0.0744,-0.01102 -0.1378,-0.03307 -0.0634,-0.01929 -0.11024,-0.04134 -0.0469,-0.0248 -0.0634,-0.04134 -0.0138,-0.01654 -0.0248,-0.03307 -0.008,-0.01654 -0.0165,-0.03858 -0.006,-0.0248 -0.008,-0.05787 -0.003,-0.03583 -0.003,-0.08543 0,-0.06063 0.003,-0.09921 0.006,-0.04134 0.0165,-0.06339 0.011,-0.0248 0.0248,-0.03307 0.0165,-0.01102 0.0386,-0.01102 0.0221,0 0.0551,0.02205 0.0358,0.01929 0.0827,0.04409 0.0496,0.0248 0.11299,0.04685 0.0634,0.01929 0.14882,0.01929 0.0937,0 0.15985,-0.02205 0.0661,-0.0248 0.11024,-0.08819 0.0441,-0.06339 0.0661,-0.173625 0.0221,-0.112994 0.0221,-0.292131 v -2.552011 q 0,-0.01929 0.011,-0.03583 0.011,-0.01654 0.0386,-0.02756 0.0276,-0.01102 0.0717,-0.01654 0.0468,-0.0055 0.11575,-0.0055 0.0661,0 0.11299,0.0055 0.0469,0.0055 0.0717,0.01654 0.0276,0.01102 0.0386,0.02756 0.0138,0.01654 0.0138,0.03583 z"
         id="path8146" /><path
         d="m 179.81165,90.643246 q 0,0.03307 -0.022,0.04961 -0.0221,0.01654 -0.0606,0.0248 -0.0386,0.0083 -0.11299,0.0083 -0.0717,0 -0.11575,-0.0083 -0.0413,-0.0083 -0.0606,-0.0248 -0.0193,-0.01654 -0.0193,-0.04961 V 90.39521 q -0.1626,0.173625 -0.36379,0.270083 -0.19843,0.09646 -0.42166,0.09646 -0.19567,0 -0.35552,-0.05236 -0.15709,-0.04961 -0.27008,-0.146066 -0.11024,-0.09646 -0.17362,-0.237012 -0.0606,-0.140553 -0.0606,-0.31969 0,-0.209452 0.0854,-0.363786 0.0854,-0.154333 0.24528,-0.256303 0.15984,-0.10197 0.39134,-0.151578 0.2315,-0.05236 0.52088,-0.05236 h 0.34174 v -0.192916 q 0,-0.14331 -0.0303,-0.253548 -0.0303,-0.110238 -0.0992,-0.181893 -0.0662,-0.07441 -0.17363,-0.110238 -0.10748,-0.03858 -0.26457,-0.03858 -0.16811,0 -0.30315,0.04134 -0.13229,0.03858 -0.23426,0.08819 -0.0992,0.04685 -0.16811,0.08819 -0.0661,0.03858 -0.0992,0.03858 -0.022,0 -0.0386,-0.01102 -0.0165,-0.01102 -0.0303,-0.03307 -0.011,-0.02205 -0.0165,-0.05512 -0.006,-0.03583 -0.006,-0.07717 0,-0.0689 0.008,-0.107482 0.011,-0.04134 0.0469,-0.07717 0.0386,-0.03583 0.12952,-0.08268 0.091,-0.04961 0.20946,-0.08819 0.1185,-0.04134 0.25906,-0.06614 0.14055,-0.02756 0.28386,-0.02756 0.26733,0 0.45473,0.06063 0.18741,0.06063 0.30316,0.179137 0.11575,0.11575 0.16811,0.289375 0.0524,0.173625 0.0524,0.405125 z m -0.45197,-1.132696 h -0.38859 q -0.18741,0 -0.3252,0.03307 -0.1378,0.03032 -0.22875,0.0937 -0.0909,0.06063 -0.13504,0.148822 -0.0413,0.08543 -0.0413,0.198428 0,0.192917 0.12126,0.308667 0.12402,0.112994 0.3445,0.112994 0.17913,0 0.33071,-0.09095 0.15433,-0.09095 0.32245,-0.278352 z"
         id="path8148" /><path
         d="m 182.42981,90.262924 q 0,0.04685 -0.003,0.08268 -0.003,0.03307 -0.011,0.05788 -0.006,0.02205 -0.0165,0.04134 -0.008,0.01654 -0.0441,0.05236 -0.0331,0.03307 -0.11575,0.08544 -0.0827,0.04961 -0.18741,0.09095 -0.10197,0.03858 -0.22323,0.06339 -0.12126,0.0248 -0.25079,0.0248 -0.26733,0 -0.47403,-0.08819 -0.20669,-0.08819 -0.34725,-0.256303 -0.13779,-0.170869 -0.2122,-0.416149 -0.0717,-0.248036 -0.0717,-0.570482 0,-0.366542 0.0882,-0.628357 0.0909,-0.264571 0.24528,-0.432685 0.15709,-0.168113 0.36654,-0.248035 0.21221,-0.08268 0.45749,-0.08268 0.11851,0 0.22874,0.02205 0.113,0.02205 0.2067,0.05787 0.0937,0.03583 0.16536,0.08268 0.0744,0.04685 0.10748,0.07992 0.0331,0.03307 0.0441,0.05236 0.0138,0.01929 0.022,0.04685 0.008,0.0248 0.011,0.05787 0.003,0.03307 0.003,0.08268 0,0.107482 -0.0248,0.151577 -0.0248,0.04134 -0.0606,0.04134 -0.0413,0 -0.0965,-0.04409 -0.0524,-0.04685 -0.13504,-0.10197 -0.0827,-0.05512 -0.20119,-0.09921 -0.11575,-0.04685 -0.27559,-0.04685 -0.32796,0 -0.50434,0.253547 -0.17363,0.250792 -0.17363,0.730327 0,0.239768 0.0441,0.421661 0.0469,0.179137 0.13504,0.300399 0.0882,0.121262 0.21497,0.181893 0.12953,0.05787 0.29488,0.05787 0.15709,0 0.2756,-0.04961 0.1185,-0.04961 0.20394,-0.107483 0.0882,-0.06063 0.14606,-0.107482 0.0606,-0.04961 0.0937,-0.04961 0.0193,0 0.0331,0.01102 0.0138,0.01102 0.022,0.03858 0.011,0.0248 0.0138,0.06614 0.006,0.03858 0.006,0.0937 z"
         id="path8150" /><path
         d="m 185.29324,89.372752 q 0,0.303155 -0.0799,0.559458 -0.0799,0.253548 -0.23977,0.438197 -0.15709,0.184648 -0.39686,0.289375 -0.23701,0.10197 -0.55119,0.10197 -0.30591,0 -0.53465,-0.09095 -0.22599,-0.09095 -0.37757,-0.264571 -0.15157,-0.173625 -0.22598,-0.421661 -0.0744,-0.248035 -0.0744,-0.562214 0,-0.303155 0.0772,-0.556702 0.0799,-0.256304 0.23701,-0.440953 0.15985,-0.184648 0.39686,-0.286619 0.23701,-0.10197 0.55395,-0.10197 0.30591,0 0.5319,0.09095 0.22874,0.09095 0.38032,0.264571 0.15157,0.173625 0.22598,0.421661 0.0772,0.248035 0.0772,0.559458 z m -0.47953,0.03031 q 0,-0.201184 -0.0386,-0.380321 -0.0358,-0.179137 -0.12126,-0.314178 -0.0854,-0.135042 -0.2315,-0.212209 -0.14606,-0.07992 -0.36379,-0.07992 -0.20118,0 -0.34725,0.07165 -0.1433,0.07166 -0.23701,0.203941 -0.0937,0.12953 -0.14055,0.308666 -0.0441,0.179137 -0.0441,0.391346 0,0.20394 0.0358,0.383077 0.0386,0.179137 0.12402,0.314179 0.0882,0.132285 0.23426,0.212208 0.14606,0.07717 0.36378,0.07717 0.19843,0 0.3445,-0.07165 0.14606,-0.07165 0.23976,-0.201185 0.0937,-0.12953 0.1378,-0.308666 0.0441,-0.179137 0.0441,-0.394102 z"
         id="path8152" /><path
         d="m 188.24487,89.36724 q 0,0.322446 -0.0717,0.581506 -0.0689,0.256304 -0.2067,0.438196 -0.13504,0.181893 -0.33347,0.278351 -0.19842,0.09646 -0.45473,0.09646 -0.1185,0 -0.22047,-0.0248 -0.0992,-0.02205 -0.19568,-0.07441 -0.0965,-0.05236 -0.19291,-0.132286 -0.0965,-0.07992 -0.20394,-0.192917 v 0.303155 q 0,0.02205 -0.011,0.03858 -0.011,0.01654 -0.0358,0.02756 -0.0248,0.0083 -0.0634,0.01378 -0.0358,0.0055 -0.0937,0.0055 -0.0551,0 -0.0937,-0.0055 -0.0386,-0.0055 -0.0634,-0.01378 -0.0248,-0.01102 -0.0331,-0.02756 -0.008,-0.01654 -0.008,-0.03858 v -3.681952 q 0,-0.02205 0.008,-0.03858 0.011,-0.01654 0.0358,-0.02756 0.0276,-0.01102 0.0717,-0.01654 0.0441,-0.0055 0.11024,-0.0055 0.0689,0 0.11299,0.0055 0.0441,0.0055 0.0689,0.01654 0.0248,0.01102 0.0358,0.02756 0.011,0.01654 0.011,0.03858 v 1.485458 q 0.11024,-0.112994 0.21221,-0.190161 0.10472,-0.07717 0.20394,-0.124017 0.0992,-0.04961 0.19843,-0.07166 0.0992,-0.02205 0.20945,-0.02205 0.27008,0 0.46024,0.107482 0.19292,0.107482 0.31143,0.289375 0.12126,0.179137 0.17638,0.421661 0.0551,0.242524 0.0551,0.512607 z m -0.47954,0.05236 q 0,-0.190161 -0.0303,-0.369297 -0.0275,-0.179137 -0.0992,-0.316935 -0.0716,-0.137798 -0.19016,-0.220476 -0.11851,-0.08544 -0.29489,-0.08544 -0.0882,0 -0.17362,0.0248 -0.0854,0.0248 -0.17363,0.08268 -0.0882,0.05787 -0.18465,0.148821 -0.0937,0.09095 -0.20118,0.228744 v 0.989387 q 0.1874,0.228744 0.35827,0.350006 0.17087,0.118506 0.35552,0.118506 0.17087,0 0.29213,-0.08268 0.12126,-0.08268 0.19567,-0.21772 0.0772,-0.137798 0.11024,-0.305911 0.0358,-0.170869 0.0358,-0.344494 z"
         id="path8154" /><path
         d="m 190.19332,90.458597 q 0,0.07992 -0.011,0.126774 -0.011,0.04685 -0.0331,0.0689 -0.022,0.02205 -0.0661,0.04134 -0.0441,0.01929 -0.10197,0.03032 -0.0551,0.01378 -0.11851,0.02205 -0.0634,0.0083 -0.12677,0.0083 -0.19292,0 -0.33072,-0.04961 -0.1378,-0.05236 -0.22599,-0.154334 -0.0882,-0.104726 -0.12953,-0.261815 -0.0386,-0.159845 -0.0386,-0.374809 v -1.449631 h -0.34725 q -0.0413,0 -0.0661,-0.04409 -0.0248,-0.0441 -0.0248,-0.14331 0,-0.05236 0.006,-0.08819 0.008,-0.03583 0.0193,-0.05787 0.011,-0.0248 0.0276,-0.03307 0.0193,-0.01102 0.0413,-0.01102 h 0.34449 v -0.589773 q 0,-0.01929 0.008,-0.03583 0.011,-0.01654 0.0358,-0.02756 0.0276,-0.01378 0.0717,-0.01929 0.0441,-0.0055 0.11024,-0.0055 0.0689,0 0.11299,0.0055 0.0441,0.0055 0.0689,0.01929 0.0248,0.01102 0.0358,0.02756 0.011,0.01654 0.011,0.03583 v 0.589773 h 0.63663 q 0.022,0 0.0386,0.01102 0.0165,0.0083 0.0276,0.03307 0.0138,0.02205 0.0193,0.05787 0.006,0.03583 0.006,0.08819 0,0.09921 -0.0248,0.14331 -0.0248,0.04409 -0.0661,0.04409 h -0.63663 v 1.383488 q 0,0.256303 0.0744,0.388589 0.0772,0.12953 0.27284,0.12953 0.0634,0 0.113,-0.01102 0.0496,-0.01378 0.0882,-0.02756 0.0386,-0.01378 0.0661,-0.0248 0.0276,-0.01378 0.0496,-0.01378 0.0138,0 0.0248,0.0083 0.0138,0.0055 0.0193,0.0248 0.008,0.01929 0.0138,0.05236 0.006,0.03307 0.006,0.08268 z"
         id="path8156" /><path
         d="m 192.24375,88.322734 q 0,0.06063 -0.003,0.10197 -0.003,0.04134 -0.011,0.06614 -0.008,0.02205 -0.022,0.03583 -0.011,0.01102 -0.0331,0.01102 -0.022,0 -0.0551,-0.01102 -0.0303,-0.01378 -0.0717,-0.0248 -0.0386,-0.01378 -0.0882,-0.0248 -0.0496,-0.01102 -0.10748,-0.01102 -0.0689,0 -0.13504,0.02756 -0.0661,0.02756 -0.14056,0.09095 -0.0717,0.06339 -0.15157,0.168113 -0.0799,0.104726 -0.17639,0.256303 v 1.631524 q 0,0.02205 -0.011,0.03858 -0.011,0.01378 -0.0358,0.0248 -0.0248,0.01102 -0.0689,0.01654 -0.0441,0.0055 -0.11299,0.0055 -0.0661,0 -0.11024,-0.0055 -0.0441,-0.0055 -0.0717,-0.01654 -0.0248,-0.01102 -0.0358,-0.0248 -0.008,-0.01654 -0.008,-0.03858 v -2.480357 q 0,-0.02205 0.008,-0.03583 0.008,-0.01654 0.0331,-0.02756 0.0248,-0.01378 0.0634,-0.01654 0.0386,-0.0055 0.10197,-0.0055 0.0606,0 0.0992,0.0055 0.0413,0.0028 0.0634,0.01654 0.0221,0.01102 0.0303,0.02756 0.011,0.01378 0.011,0.03583 v 0.36103 q 0.10197,-0.148822 0.19016,-0.242524 0.0909,-0.0937 0.17087,-0.146065 0.0799,-0.05512 0.15709,-0.07441 0.0799,-0.02205 0.15984,-0.02205 0.0358,0 0.0799,0.0055 0.0469,0.0028 0.0965,0.01378 0.0496,0.01102 0.0882,0.0248 0.0413,0.01378 0.0579,0.02756 0.0165,0.01378 0.022,0.02756 0.006,0.01102 0.008,0.03032 0.006,0.01929 0.006,0.05787 0.003,0.03583 0.003,0.09921 z"
         id="path8158" /><path
         d="m 194.80403,89.292829 q 0,0.107483 -0.0551,0.154334 -0.0524,0.04409 -0.12126,0.04409 h -1.62601 q 0,0.206696 0.0413,0.372053 0.0413,0.165358 0.1378,0.283864 0.0965,0.118505 0.25079,0.181892 0.15433,0.06339 0.37756,0.06339 0.17638,0 0.31418,-0.02756 0.1378,-0.03032 0.23701,-0.06614 0.10197,-0.03583 0.16536,-0.06339 0.0661,-0.03032 0.0992,-0.03032 0.0193,0 0.0331,0.01102 0.0165,0.0083 0.0248,0.02756 0.008,0.01929 0.011,0.05512 0.006,0.03307 0.006,0.08268 0,0.03583 -0.003,0.06339 -0.003,0.0248 -0.008,0.04685 -0.003,0.01929 -0.0138,0.03583 -0.008,0.01654 -0.0248,0.03307 -0.0138,0.01378 -0.0882,0.04961 -0.0744,0.03307 -0.19292,0.06614 -0.1185,0.03307 -0.27559,0.05787 -0.15434,0.02756 -0.33072,0.02756 -0.30591,0 -0.53741,-0.08544 -0.22874,-0.08543 -0.38583,-0.253547 -0.15709,-0.168113 -0.23701,-0.421661 -0.0799,-0.253548 -0.0799,-0.589774 0,-0.31969 0.0827,-0.573238 0.0827,-0.256303 0.23701,-0.432684 0.15709,-0.179137 0.37757,-0.272839 0.22048,-0.09646 0.49332,-0.09646 0.29213,0 0.49607,0.0937 0.20669,0.0937 0.33898,0.253547 0.13228,0.157089 0.19292,0.372054 0.0634,0.212208 0.0634,0.454732 z m -0.45749,-0.135041 q 0.008,-0.358274 -0.15984,-0.562215 -0.16536,-0.20394 -0.49332,-0.20394 -0.16811,0 -0.29488,0.06339 -0.12678,0.06339 -0.21221,0.168113 -0.0854,0.104726 -0.13229,0.24528 -0.0469,0.137797 -0.0524,0.289375 z"
         id="path8160" /><path
         d="m 197.36431,90.643246 q 0,0.03307 -0.022,0.04961 -0.022,0.01654 -0.0606,0.0248 -0.0386,0.0083 -0.11299,0.0083 -0.0717,0 -0.11575,-0.0083 -0.0413,-0.0083 -0.0606,-0.0248 -0.0193,-0.01654 -0.0193,-0.04961 V 90.39521 q -0.1626,0.173625 -0.36379,0.270083 -0.19843,0.09646 -0.42166,0.09646 -0.19567,0 -0.35552,-0.05236 -0.15709,-0.04961 -0.27008,-0.146066 -0.11024,-0.09646 -0.17363,-0.237012 -0.0606,-0.140553 -0.0606,-0.31969 0,-0.209452 0.0854,-0.363786 0.0854,-0.154333 0.24528,-0.256303 0.15984,-0.10197 0.39134,-0.151578 0.2315,-0.05236 0.52088,-0.05236 h 0.34174 v -0.192916 q 0,-0.14331 -0.0303,-0.253548 -0.0303,-0.110238 -0.0992,-0.181893 -0.0662,-0.07441 -0.17363,-0.110238 -0.10748,-0.03858 -0.26457,-0.03858 -0.16811,0 -0.30316,0.04134 -0.13228,0.03858 -0.23425,0.08819 -0.0992,0.04685 -0.16811,0.08819 -0.0662,0.03858 -0.0992,0.03858 -0.0221,0 -0.0386,-0.01102 -0.0165,-0.01102 -0.0303,-0.03307 -0.011,-0.02205 -0.0165,-0.05512 -0.006,-0.03583 -0.006,-0.07717 0,-0.0689 0.008,-0.107482 0.011,-0.04134 0.0469,-0.07717 0.0386,-0.03583 0.12953,-0.08268 0.091,-0.04961 0.20946,-0.08819 0.1185,-0.04134 0.25906,-0.06614 0.14055,-0.02756 0.28386,-0.02756 0.26733,0 0.45473,0.06063 0.18741,0.06063 0.30316,0.179137 0.11575,0.11575 0.16811,0.289375 0.0524,0.173625 0.0524,0.405125 z m -0.45197,-1.132696 h -0.38859 q -0.18741,0 -0.32521,0.03307 -0.13779,0.03032 -0.22874,0.0937 -0.0909,0.06063 -0.13504,0.148822 -0.0413,0.08543 -0.0413,0.198428 0,0.192917 0.12126,0.308667 0.12402,0.112994 0.3445,0.112994 0.17913,0 0.33071,-0.09095 0.15433,-0.09095 0.32245,-0.278352 z"
         id="path8162" /><path
         d="m 200.3242,90.64049 q 0,0.02205 -0.011,0.03858 -0.008,0.01654 -0.0331,0.02756 -0.0221,0.0083 -0.0606,0.01378 -0.0386,0.0055 -0.0937,0.0055 -0.0579,0 -0.0965,-0.0055 -0.0386,-0.0055 -0.0634,-0.01378 -0.0248,-0.01102 -0.0358,-0.02756 -0.011,-0.01654 -0.011,-0.03858 v -0.327958 q -0.19567,0.212208 -0.40788,0.330714 -0.20945,0.118506 -0.46025,0.118506 -0.27284,0 -0.46575,-0.104726 -0.19292,-0.107482 -0.31418,-0.286619 -0.11851,-0.181893 -0.17363,-0.424417 -0.0551,-0.24528 -0.0551,-0.515363 0,-0.31969 0.0689,-0.575994 0.0689,-0.25906 0.20394,-0.440952 0.13505,-0.181893 0.33348,-0.278351 0.20118,-0.09922 0.463,-0.09922 0.21772,0 0.39685,0.09646 0.18189,0.0937 0.35828,0.278351 v -1.441363 q 0,-0.01929 0.008,-0.03583 0.011,-0.01929 0.0386,-0.02756 0.0276,-0.01102 0.0689,-0.01654 0.0441,-0.0083 0.11023,-0.0083 0.0689,0 0.113,0.0083 0.0441,0.0055 0.0689,0.01654 0.0248,0.0083 0.0358,0.02756 0.0138,0.01654 0.0138,0.03583 z m -0.45748,-1.744518 q -0.18465,-0.228744 -0.35828,-0.34725 -0.17087,-0.121262 -0.35827,-0.121262 -0.17363,0 -0.29489,0.08268 -0.12126,0.08268 -0.19843,0.21772 -0.0744,0.135042 -0.11024,0.305911 -0.0331,0.170869 -0.0331,0.34725 0,0.187405 0.0276,0.366541 0.0303,0.179137 0.10197,0.319691 0.0717,0.137798 0.19016,0.223232 0.11851,0.08268 0.29765,0.08268 0.0909,0 0.17362,-0.0248 0.0854,-0.0248 0.17363,-0.08268 0.0882,-0.05788 0.18465,-0.148821 0.0965,-0.0937 0.20394,-0.228744 z"
         id="path8164" /></g></g></svg>
