<?xml version="1.0" encoding="UTF-8" standalone="no"?>
<!-- Created with Inkscape (http://www.inkscape.org/) -->

<svg
   width="210mm"
   height="297mm"
   viewBox="0 0 210 297"
   version="1.1"
   id="svg5"
   xml:space="preserve"
   sodipodi:docname="logo.svg"
   inkscape:version="1.2.1 (9c6d41e410, 2022-07-14)"
   xmlns:inkscape="http://www.inkscape.org/namespaces/inkscape"
   xmlns:sodipodi="http://sodipodi.sourceforge.net/DTD/sodipodi-0.dtd"
   xmlns:xlink="http://www.w3.org/1999/xlink"
   xmlns="http://www.w3.org/2000/svg"
   xmlns:svg="http://www.w3.org/2000/svg"><sodipodi:namedview
     id="namedview7"
     pagecolor="#505050"
     bordercolor="#eeeeee"
     borderopacity="1"
     inkscape:showpageshadow="0"
     inkscape:pageopacity="0"
     inkscape:pagecheckerboard="0"
     inkscape:deskcolor="#505050"
     inkscape:document-units="mm"
     showgrid="false"
     showguides="false"
     inkscape:zoom="1.0444209"
     inkscape:cx="407.40279"
     inkscape:cy="348.51849"
     inkscape:window-width="1920"
     inkscape:window-height="1009"
     inkscape:window-x="-8"
     inkscape:window-y="-8"
     inkscape:window-maximized="1"
     inkscape:current-layer="layer1" /><defs
     id="defs2"><linearGradient
       inkscape:collect="always"
       id="linearGradient3954"><stop
         style="stop-color:#202634;stop-opacity:1;"
         offset="0"
         id="stop3950" /><stop
         style="stop-color:#19153f;stop-opacity:1;"
         offset="1"
         id="stop3952" /></linearGradient><inkscape:path-effect
       effect="fill_between_many"
       method="originald"
       linkedpaths="#path523,0,1"
       id="path-effect1322" /><inkscape:path-effect
       effect="fill_between_many"
       method="originald"
       linkedpaths="#path523,0,1"
       id="path-effect1326" /><linearGradient
       inkscape:collect="always"
       xlink:href="#linearGradient3954"
       id="linearGradient3956"
       x1="0.60354942"
       y1="50.000003"
       x2="209.39646"
       y2="50.000003"
       gradientUnits="userSpaceOnUse" /></defs><g
     inkscape:label="Layer 1"
     inkscape:groupmode="layer"
     id="layer1"><rect
       style="fill:url(#linearGradient3956);stroke:none;stroke-width:1.20709;stroke-linejoin:bevel;paint-order:stroke markers fill;fill-opacity:1"
       id="rect525"
       width="208.79291"
       height="98.792908"
       x="0.60354942"
       y="0.60354942" /><path
       id="path3528"
       style="fill:#cdcdcd;fill-opacity:1;stroke:none;stroke-width:0.014;stroke-linejoin:bevel;stroke-dasharray:none;stroke-opacity:1"
       d="m 82.051428,4.6568636 -0.07958,7.2383174 c -0.07639,6.954301 -0.153782,12.659743 -0.172082,12.678813 -3.894914,-0.774429 -7.439233,-0.849097 -10.962122,-0.0031 -0.641395,0.154037 -1.285366,0.308361 -1.43092,0.343131 l -0.264584,0.06304 0.02429,-3.285587 c 0.01341,-1.807087 0.02517,-4.787704 0.02584,-6.623368 l 0.001,-3.337265 H 68.916829 68.64036 l -0.06459,2.06034 c -0.03541,1.133322 -0.116194,3.49757 -0.179834,5.253426 -0.06365,1.755856 -0.115097,3.85251 -0.114205,4.659664 l 0.0015,1.467611 -0.305408,0.07648 c -0.167984,0.04188 -0.398479,0.10514 -0.512113,0.14056 l -0.206706,0.06408 0.04031,-3.233394 c 0.02204,-1.778353 0.02716,-4.761458 0.01189,-6.629053 l -0.02739,-3.395658 h -0.265617 -0.2651 l -0.07545,2.757454 c -0.04149,1.516422 -0.12109,3.906105 -0.17725,5.310787 -0.05616,1.404683 -0.103114,3.194354 -0.103869,3.976502 l -0.0016,1.421618 h -0.139526 c -0.07668,0 -1.463545,0.510308 -3.081983,1.133781 -5.515791,1.706758 -10.158548,5.807725 -15.033707,7.72356 -4.133561,1.343583 -6.948651,1.965719 -10.899077,2.674255 l -0.458886,0.325045 -0.458887,0.325045 -0.07545,0.526583 -0.07545,0.526066 h -2.780613 -2.780192 c -0.315566,0.0099 -0.653785,0.131392 -0.644922,0.398425 v 0.449585 0.450102 c 0.04344,0.212357 0.04206,0.424757 0.499711,0.435632 l 2.685624,0.0036 2.685625,0.0036 0.03514,0.260966 0.03566,0.261482 5.830652,0.0894 5.831169,0.08992 0.388606,0.08423 -0.01444,0.297469 -8.814996,-0.154839 -9.218559,0.05839 c -0.674634,-0.03072 -0.351063,1.335738 0.333315,1.334285 l -0.03359,1.494482 -0.03411,1.493966 -0.781864,0.05839 -0.782381,0.05891 c -0.661279,0.324344 -0.363788,0.948952 -0.06511,1.419034 l 0.253215,0.389124 2.721281,0.620634 c 1.496588,0.341331 4.495149,1.013761 6.663676,1.493966 l 3.942912,0.872815 3.664375,0.993221 3.664893,0.992704 1.832961,0.79013 c 1.008112,0.43458 2.982368,1.348776 4.387329,2.031401 3.175604,1.542919 7.303796,3.272706 10.217981,4.281909 l 2.221053,0.769462 2.055172,0.482141 2.054655,0.481625 2.443262,0.197404 5.16e-4,10e-4 c 1.343876,0.108469 2.543301,0.182165 2.665471,0.163815 0.122171,-0.01832 1.296848,-0.119802 2.610176,-0.225826 l 2.387451,-0.192754 1.499651,-0.404109 c 0.824649,-0.222044 3.173478,-0.867781 5.219836,-1.435055 l 3.720703,-1.031461 2.499072,-0.882117 c 1.374419,-0.485403 3.273596,-1.134941 4.220413,-1.443323 l 1.721339,-0.560689 2.66547,-0.465605 2.66547,-0.465604 3.14297,-0.327629 3.14347,-0.327112 0.0816,0.13901 0.0822,0.138493 25.47751,0.107487 25.47751,0.107487 1.00718,-0.455787 1.00717,-0.455786 1.49914,-1.093473 1.49965,-1.093473 0.74724,-0.836642 0.74724,-0.836124 6.16551,0.06821 6.16552,0.06873 0.17932,-0.644922 0.17931,-0.644922 -0.15038,-0.09974 -0.15089,-0.09974 -3.10989,-0.0047 c -1.71039,-0.0024 -14.33013,-0.08024 -28.04376,-0.173116 -13.71365,-0.09289 -26.81182,-0.170165 -29.10727,-0.171565 l -4.17339,-0.0031 -0.88005,0.693498 c -0.94125,0.741871 -1.0806,0.796651 -1.33997,0.525549 l -0.16692,-0.174149 h 0.262 c 0.36002,-0.108388 0.59497,-0.352932 0.84646,-0.619084 l 0.58498,-0.619084 -0.17208,-0.149861 -0.1726,-0.149345 -10.85618,-0.105937 c -5.97112,-0.0582 -11.755736,-0.09093 -12.854516,-0.07286 l -1.997811,0.03307 c -2.080094,5.206774 -8.159355,9.54197 -13.243293,8.655315 12.927862,-4.104644 7.820541,-18.064248 0,-18.813211 1.903399,-0.686161 11.781934,2.868106 12.647995,5.814111 l 0.230994,0.429431 3.012736,0.06666 c 1.657108,0.03685 11.230365,0.123763 21.274155,0.192753 12.79097,0.364264 14.31138,0.114153 21.61838,0.114153 h 2.49184 v -0.232027 -0.232544 h 1.06505 1.06557 l 0.0584,-0.232027 0.0579,-0.232027 5.12372,0.0093 c 2.81808,0.0052 12.24601,0.07437 20.95066,0.153479 l 15.82642,0.143661 0.15141,-0.07803 0.15142,-0.07803 -0.33538,-0.249597 -0.33487,-0.249081 -0.37155,-0.01344 -0.37156,-0.01344 0.19431,-0.05323 c 0.24122,-0.06594 0.24241,-0.155262 0.007,-0.67076 l -0.18758,-0.410311 h -0.36122 -0.36174 l -0.0739,-0.125057 -0.0739,-0.125057 0.5948,0.01912 c 0.32722,0.0104 0.68056,0.01449 0.78496,0.0088 l 0.18965,-0.0098 -0.19999,-0.49351 -0.19998,-0.492993 -0.71159,-0.07235 c -0.39151,-0.0397 -3.17916,-0.113791 -6.19445,-0.164331 l -5.48235,-0.09147 -1.97766,-1.954919 -1.97766,-1.95492 -15.47451,-0.181901 c -8.51111,-0.09991 -15.83675,-0.164984 -16.27911,-0.144694 l -0.8046,0.03669 -0.0589,-0.161748 c -0.0317,-0.08895 -0.0451,-0.174852 -0.0284,-0.191202 0.0167,-0.01633 3.40393,0.0146 7.52719,0.06873 4.12325,0.05407 8.20908,0.100787 9.07955,0.104387 l 1.58233,0.0057 v -0.214974 -0.214457 l -1.01648,-0.07545 c -0.55914,-0.04151 -2.34616,-0.07588 -3.97081,-0.07596 -1.62464,-7e-5 -5.31617,-0.0347 -8.20364,-0.077 l -5.2498,-0.07648 -0.22118,-0.374137 -0.22118,-0.373621 -4.02507,-0.07441 c -2.21375,-0.04089 -8.57268,-0.124369 -14.13144,-0.185518 -5.55877,-0.06113 -11.14409,-0.144422 -12.41164,-0.185002 l -2.30477,-0.07338 c -4.331455,-4.706236 -10.85971,-7.593746 -16.178745,-8.840274 -0.0105,-0.0081 0.04704,-5.761144 0.12764,-12.784233 0.04712,-4.1083237 0.053,-5.1357583 0.07596,-7.4796464 h -1.305864 c -0.03074,2.1811098 -0.06248,4.8776224 -0.08682,7.8863404 -0.03949,4.88447 -0.10181,9.625421 -0.13901,10.535274 l -0.0677,1.654163 h -0.198954 -0.198954 l 0.04909,-2.931087 c 0.02694,-1.612194 0.09716,-7.317205 0.156063,-12.67778 L 82.77333,4.6568636 Z M 76.914,37.4807 c -6.55221,0.171458 -12.899178,13.891446 0,18.902965 -5.493233,1.142045 -13.595547,-5.664364 -14.271723,-10.232693 -0.155881,-0.02487 -0.311777,-0.04964 -0.467672,-0.07442 v -0.761194 c 0.298242,-0.140414 0.596377,-0.281053 0.894519,-0.42168 C 63.568781,43.825139 65.75704,38.011843 76.914,37.4807 Z m 0.776666,1.514243 c 10.215509,2.344708 7.940418,14.591537 -0.03167,15.571984 -7.921248,-0.961873 -8.837363,-13.875767 0.03167,-15.571984 z"
       sodipodi:nodetypes="ccccccccccccsccccccccccssccsccccccccccccccccccccccccccccccccccccscccccccsccccccccccccccccccccccccccccscccccccccccccccccccccccccccccccccccccccccccccccccccccccccscccccsscccccsccccccccccccscccccccccccc"
       class="UnoptimicedTransforms"
       inkscape:export-filename="logo.svg"
       inkscape:export-xdpi="96"
       inkscape:export-ydpi="96" /><rect
       style="fill:#0f1425;fill-opacity:1;stroke:none;stroke-width:1.22181;stroke-linejoin:bevel;stroke-opacity:1;paint-order:stroke markers fill"
       id="rect3897"
       width="210"
       height="30"
       x="0"
       y="69.666" /><text
       xml:space="preserve"
       style="font-size:8.46667px;font-family:Calibri;-inkscape-font-specification:Calibri;fill:#ffffff;fill-opacity:1;stroke:none;stroke-width:1.224;stroke-linejoin:bevel;stroke-opacity:1;paint-order:stroke markers fill"
       x="9.4170895"
       y="83.758827"
       id="text3584"><tspan
         sodipodi:role="line"
         id="tspan3582"
         style="font-style:normal;font-variant:normal;font-weight:bold;font-stretch:normal;font-family:Calibri;-inkscape-font-specification:'Calibri Bold';fill:#ffffff;stroke:none;stroke-width:1.224"
         x="9.4170895"
         y="83.758827">Pocket Relay</tspan></text><text
       xml:space="preserve"
       style="font-size:5.64471px;font-family:Calibri;-inkscape-font-specification:Calibri;fill:#b3b3b3;fill-opacity:1;stroke:none;stroke-width:1.22406;stroke-linejoin:bevel;stroke-opacity:1;paint-order:stroke markers fill"
       x="9.5264111"
       y="91.496292"
       id="text3789"
       transform="scale(0.9999522,1.0000478)"><tspan
         sodipodi:role="line"
         id="tspan3787"
         style="font-size:5.64471px;stroke-width:1.22406"
         x="9.5264111"
         y="91.496292">Mass Effect 3 Server Emulator</tspan></text><text
       xml:space="preserve"
       style="font-size:5.64419px;font-family:Calibri;-inkscape-font-specification:Calibri;fill:#b3b3b3;fill-opacity:1;stroke:none;stroke-width:1.22395;stroke-linejoin:bevel;stroke-opacity:1;paint-order:stroke markers fill"
       x="168.9532"
       y="90.709389"
       id="text3843"
       transform="scale(1.0000436,0.9999564)"><tspan
         sodipodi:role="line"
         id="tspan3841"
         style="font-size:5.64419px;stroke-width:1.22395"
         x="168.9532"
         y="90.709389">by Jacobtread</tspan></text></g></svg>
